<svg xmlns="http://www.w3.org/2000/svg" xmlns:xlink="http://www.w3.org/1999/xlink" viewBox="0 0 1280 720" width="1280" height="720"><rect width="1280" height="720" fill="#f8fafc"/><g role="img" aria-label="Shape 0" data-pptx-id="257.2" data-pptx-path="0" transform="translate(28, 45)"><rect fill="#2563eb" stroke-width="1.333" stroke="none" width="6" height="40"/></g><g role="img" aria-label="Text 1" data-pptx-id="257.3" data-pptx-path="1" transform="translate(46, 41)"><rect fill="none" stroke-width="1.333" stroke="none" width="1206" height="32"/><text x="0" y="28.08" xml:space="preserve"><tspan x="0" dy="0" text-anchor="start" font-size="24" font-family="'Noto Sans JP', sans-serif" font-weight="bold" fill="#0f172a">業績サマリー ― 主要経営指標</tspan></text></g><g role="img" aria-label="Text 2" data-pptx-id="257.4" data-pptx-path="2" transform="translate(46, 74)"><rect fill="none" stroke-width="1.333" stroke="none" width="1206" height="15"/><text x="0" y="12.87" xml:space="preserve"><tspan x="0" dy="0" text-anchor="start" font-size="11" font-family="'Noto Sans JP', sans-serif" fill="#64748b">Q3 FY2025 連結業績（2025年10月〜12月）</tspan></text></g><g role="img" aria-label="Shape 3" data-pptx-id="257.5" data-pptx-path="3" transform="translate(28, 116)"><rect fill="#1e293b" stroke-width="1.333" stroke="none" width="612" height="37" rx="18.5" ry="18.5"/></g><g role="img" aria-label="Text 4" data-pptx-id="257.6" data-pptx-path="4" transform="translate(38, 126)"><rect fill="none" stroke-width="1.333" stroke="none" width="592" height="18"/><text x="0" y="15.21" xml:space="preserve"><tspan x="296" dy="0" text-anchor="middle" font-size="13" font-family="'Noto Sans JP', sans-serif" font-weight="bold" fill="#ffffff">連結損益計算書（主要項目）</tspan></text></g><g role="img" aria-label="Table 0" data-pptx-id="257.3" data-pptx-path="5" transform="translate(28, 164)"><rect x="0" y="0" width="130" height="34" fill="#1e293b"/><g transform="translate(0, 0)"><text x="0" y="9.314" xml:space="preserve"><tspan x="65" dy="0" text-anchor="middle" font-size="10" font-family="游ゴシック, 'Noto Sans JP', Calibri, Carlito, sans-serif" font-weight="bold" fill="#ffffff">項目</tspan></text></g><rect x="130" y="0" width="100" height="34" fill="#1e293b"/><g transform="translate(130, 0)"><text x="0" y="9.314" xml:space="preserve"><tspan x="50" dy="0" text-anchor="middle" font-size="10" font-family="游ゴシック, 'Noto Sans JP', Calibri, Carlito, sans-serif" font-weight="bold" fill="#ffffff">当期実績</tspan></text></g><rect x="230" y="0" width="100" height="34" fill="#1e293b"/><g transform="translate(230, 0)"><text x="0" y="9.314" xml:space="preserve"><tspan x="50" dy="0" text-anchor="middle" font-size="10" font-family="游ゴシック, 'Noto Sans JP', Calibri, Carlito, sans-serif" font-weight="bold" fill="#ffffff">前年同期</tspan></text></g><rect x="330" y="0" width="80" height="34" fill="#1e293b"/><g transform="translate(330, 0)"><text x="0" y="9.314" xml:space="preserve"><tspan x="40" dy="0" text-anchor="middle" font-size="10" font-family="游ゴシック, 'Noto Sans JP', Calibri, Carlito, sans-serif" font-weight="bold" fill="#ffffff">増減額</tspan></text></g><rect x="410" y="0" width="80" height="34" fill="#1e293b"/><g transform="translate(410, 0)"><text x="0" y="9.314" xml:space="preserve"><tspan x="40" dy="0" text-anchor="middle" font-size="10" font-family="游ゴシック, 'Noto Sans JP', Calibri, Carlito, sans-serif" font-weight="bold" fill="#ffffff">増減率</tspan></text></g><rect x="0" y="34" width="130" height="34" fill="#eff6ff"/><g transform="translate(0, 34)"><text x="0" y="9.314" xml:space="preserve"><tspan x="0" dy="0" text-anchor="start" font-size="10" font-family="游ゴシック, 'Noto Sans JP', Calibri, Carlito, sans-serif" font-weight="bold" fill="#1e293b">売上高</tspan></text></g><rect x="130" y="34" width="100" height="34" fill="#ffffff"/><g transform="translate(130, 34)"><text x="0" y="9.314" xml:space="preserve"><tspan x="57.231" dy="0" text-anchor="end" font-size="10" font-family="Calibri, Carlito, 游ゴシック, 'Noto Sans JP', sans-serif" fill="#1e293b">4,285</tspan><tspan x="80" text-anchor="start" font-size="10" font-family="游ゴシック, 'Noto Sans JP', Calibri, Carlito, sans-serif" fill="#1e293b">億円</tspan></text></g><rect x="230" y="34" width="100" height="34" fill="#ffffff"/><g transform="translate(230, 34)"><text x="0" y="9.314" xml:space="preserve"><tspan x="57.231" dy="0" text-anchor="end" font-size="10" font-family="Calibri, Carlito, 游ゴシック, 'Noto Sans JP', sans-serif" fill="#64748b">3,892</tspan><tspan x="80" text-anchor="start" font-size="10" font-family="游ゴシック, 'Noto Sans JP', Calibri, Carlito, sans-serif" fill="#64748b">億円</tspan></text></g><rect x="330" y="34" width="80" height="34" fill="#f0fdf4"/><g transform="translate(330, 34)"><text x="0" y="9.314" xml:space="preserve"><tspan x="49.814" dy="0" text-anchor="end" font-size="10" font-family="Calibri, Carlito, 游ゴシック, 'Noto Sans JP', sans-serif" fill="#059669">+393</tspan><tspan x="70" text-anchor="start" font-size="10" font-family="游ゴシック, 'Noto Sans JP', Calibri, Carlito, sans-serif" fill="#059669">億</tspan></text></g><rect x="410" y="34" width="80" height="34" fill="#f0fdf4"/><g transform="translate(410, 34)"><text x="0" y="9.314" xml:space="preserve"><tspan x="40" dy="0" text-anchor="middle" font-size="10" font-family="Calibri, Carlito, 游ゴシック, 'Noto Sans JP', sans-serif" font-weight="bold" fill="#059669">+10.1%</tspan></text></g><rect x="0" y="68" width="130" height="34" fill="#eff6ff"/><g transform="translate(0, 68)"><text x="0" y="9.314" xml:space="preserve"><tspan x="0" dy="0" text-anchor="start" font-size="10" font-family="游ゴシック, 'Noto Sans JP', Calibri, Carlito, sans-serif" font-weight="bold" fill="#1e293b">売上総利益</tspan></text></g><rect x="130" y="68" width="100" height="34" fill="#ffffff"/><g transform="translate(130, 68)"><text x="0" y="9.314" xml:space="preserve"><tspan x="57.231" dy="0" text-anchor="end" font-size="10" font-family="Calibri, Carlito, 游ゴシック, 'Noto Sans JP', sans-serif" fill="#1e293b">1,842</tspan><tspan x="80" text-anchor="start" font-size="10" font-family="游ゴシック, 'Noto Sans JP', Calibri, Carlito, sans-serif" fill="#1e293b">億円</tspan></text></g><rect x="230" y="68" width="100" height="34" fill="#ffffff"/><g transform="translate(230, 68)"><text x="0" y="9.314" xml:space="preserve"><tspan x="57.231" dy="0" text-anchor="end" font-size="10" font-family="Calibri, Carlito, 游ゴシック, 'Noto Sans JP', sans-serif" fill="#64748b">1,634</tspan><tspan x="80" text-anchor="start" font-size="10" font-family="游ゴシック, 'Noto Sans JP', Calibri, Carlito, sans-serif" fill="#64748b">億円</tspan></text></g><rect x="330" y="68" width="80" height="34" fill="#f0fdf4"/><g transform="translate(330, 68)"><text x="0" y="9.314" xml:space="preserve"><tspan x="49.814" dy="0" text-anchor="end" font-size="10" font-family="Calibri, Carlito, 游ゴシック, 'Noto Sans JP', sans-serif" fill="#059669">+208</tspan><tspan x="70" text-anchor="start" font-size="10" font-family="游ゴシック, 'Noto Sans JP', Calibri, Carlito, sans-serif" fill="#059669">億</tspan></text></g><rect x="410" y="68" width="80" height="34" fill="#f0fdf4"/><g transform="translate(410, 68)"><text x="0" y="9.314" xml:space="preserve"><tspan x="40" dy="0" text-anchor="middle" font-size="10" font-family="Calibri, Carlito, 游ゴシック, 'Noto Sans JP', sans-serif" font-weight="bold" fill="#059669">+12.7%</tspan></text></g><rect x="0" y="102" width="130" height="34" fill="#eff6ff"/><g transform="translate(0, 102)"><text x="0" y="9.314" xml:space="preserve"><tspan x="0" dy="0" text-anchor="start" font-size="10" font-family="游ゴシック, 'Noto Sans JP', Calibri, Carlito, sans-serif" font-weight="bold" fill="#1e293b">営業利益</tspan></text></g><rect x="130" y="102" width="100" height="34" fill="#ffffff"/><g transform="translate(130, 102)"><text x="0" y="9.314" xml:space="preserve"><tspan x="64.795" dy="0" text-anchor="end" font-size="10" font-family="Calibri, Carlito, 游ゴシック, 'Noto Sans JP', sans-serif" fill="#1e293b">512</tspan><tspan x="80" text-anchor="start" font-size="10" font-family="游ゴシック, 'Noto Sans JP', Calibri, Carlito, sans-serif" fill="#1e293b">億円</tspan></text></g><rect x="230" y="102" width="100" height="34" fill="#ffffff"/><g transform="translate(230, 102)"><text x="0" y="9.314" xml:space="preserve"><tspan x="64.795" dy="0" text-anchor="end" font-size="10" font-family="Calibri, Carlito, 游ゴシック, 'Noto Sans JP', sans-serif" fill="#64748b">438</tspan><tspan x="80" text-anchor="start" font-size="10" font-family="游ゴシック, 'Noto Sans JP', Calibri, Carlito, sans-serif" fill="#64748b">億円</tspan></text></g><rect x="330" y="102" width="80" height="34" fill="#f0fdf4"/><g transform="translate(330, 102)"><text x="0" y="9.314" xml:space="preserve"><tspan x="54.883" dy="0" text-anchor="end" font-size="10" font-family="Calibri, Carlito, 游ゴシック, 'Noto Sans JP', sans-serif" fill="#059669">+74</tspan><tspan x="70" text-anchor="start" font-size="10" font-family="游ゴシック, 'Noto Sans JP', Calibri, Carlito, sans-serif" fill="#059669">億</tspan></text></g><rect x="410" y="102" width="80" height="34" fill="#f0fdf4"/><g transform="translate(410, 102)"><text x="0" y="9.314" xml:space="preserve"><tspan x="40" dy="0" text-anchor="middle" font-size="10" font-family="Calibri, Carlito, 游ゴシック, 'Noto Sans JP', sans-serif" font-weight="bold" fill="#059669">+16.9%</tspan></text></g><rect x="0" y="136" width="130" height="34" fill="#eff6ff"/><g transform="translate(0, 136)"><text x="0" y="9.314" xml:space="preserve"><tspan x="0" dy="0" text-anchor="start" font-size="10" font-family="游ゴシック, 'Noto Sans JP', Calibri, Carlito, sans-serif" font-weight="bold" fill="#1e293b">経常利益</tspan></text></g><rect x="130" y="136" width="100" height="34" fill="#ffffff"/><g transform="translate(130, 136)"><text x="0" y="9.314" xml:space="preserve"><tspan x="64.795" dy="0" text-anchor="end" font-size="10" font-family="Calibri, Carlito, 游ゴシック, 'Noto Sans JP', sans-serif" fill="#1e293b">498</tspan><tspan x="80" text-anchor="start" font-size="10" font-family="游ゴシック, 'Noto Sans JP', Calibri, Carlito, sans-serif" fill="#1e293b">億円</tspan></text></g><rect x="230" y="136" width="100" height="34" fill="#ffffff"/><g transform="translate(230, 136)"><text x="0" y="9.314" xml:space="preserve"><tspan x="64.795" dy="0" text-anchor="end" font-size="10" font-family="Calibri, Carlito, 游ゴシック, 'Noto Sans JP', sans-serif" fill="#64748b">421</tspan><tspan x="80" text-anchor="start" font-size="10" font-family="游ゴシック, 'Noto Sans JP', Calibri, Carlito, sans-serif" fill="#64748b">億円</tspan></text></g><rect x="330" y="136" width="80" height="34" fill="#f0fdf4"/><g transform="translate(330, 136)"><text x="0" y="9.314" xml:space="preserve"><tspan x="54.883" dy="0" text-anchor="end" font-size="10" font-family="Calibri, Carlito, 游ゴシック, 'Noto Sans JP', sans-serif" fill="#059669">+77</tspan><tspan x="70" text-anchor="start" font-size="10" font-family="游ゴシック, 'Noto Sans JP', Calibri, Carlito, sans-serif" fill="#059669">億</tspan></text></g><rect x="410" y="136" width="80" height="34" fill="#f0fdf4"/><g transform="translate(410, 136)"><text x="0" y="9.314" xml:space="preserve"><tspan x="40" dy="0" text-anchor="middle" font-size="10" font-family="Calibri, Carlito, 游ゴシック, 'Noto Sans JP', sans-serif" font-weight="bold" fill="#059669">+18.3%</tspan></text></g><rect x="0" y="170" width="130" height="34" fill="#eff6ff"/><g transform="translate(0, 170)"><text x="0" y="9.314" xml:space="preserve"><tspan x="0" dy="0" text-anchor="start" font-size="10" font-family="游ゴシック, 'Noto Sans JP', Calibri, Carlito, sans-serif" font-weight="bold" fill="#1e293b">当期純利益</tspan></text></g><rect x="130" y="170" width="100" height="34" fill="#ffffff"/><g transform="translate(130, 170)"><text x="0" y="9.314" xml:space="preserve"><tspan x="64.795" dy="0" text-anchor="end" font-size="10" font-family="Calibri, Carlito, 游ゴシック, 'Noto Sans JP', sans-serif" fill="#1e293b">328</tspan><tspan x="80" text-anchor="start" font-size="10" font-family="游ゴシック, 'Noto Sans JP', Calibri, Carlito, sans-serif" fill="#1e293b">億円</tspan></text></g><rect x="230" y="170" width="100" height="34" fill="#ffffff"/><g transform="translate(230, 170)"><text x="0" y="9.314" xml:space="preserve"><tspan x="64.795" dy="0" text-anchor="end" font-size="10" font-family="Calibri, Carlito, 游ゴシック, 'Noto Sans JP', sans-serif" fill="#64748b">276</tspan><tspan x="80" text-anchor="start" font-size="10" font-family="游ゴシック, 'Noto Sans JP', Calibri, Carlito, sans-serif" fill="#64748b">億円</tspan></text></g><rect x="330" y="170" width="80" height="34" fill="#f0fdf4"/><g transform="translate(330, 170)"><text x="0" y="9.314" xml:space="preserve"><tspan x="54.883" dy="0" text-anchor="end" font-size="10" font-family="Calibri, Carlito, 游ゴシック, 'Noto Sans JP', sans-serif" fill="#059669">+52</tspan><tspan x="70" text-anchor="start" font-size="10" font-family="游ゴシック, 'Noto Sans JP', Calibri, Carlito, sans-serif" fill="#059669">億</tspan></text></g><rect x="410" y="170" width="80" height="34" fill="#f0fdf4"/><g transform="translate(410, 170)"><text x="0" y="9.314" xml:space="preserve"><tspan x="40" dy="0" text-anchor="middle" font-size="10" font-family="Calibri, Carlito, 游ゴシック, 'Noto Sans JP', sans-serif" font-weight="bold" fill="#059669">+18.8%</tspan></text></g></g><g role="img" aria-label="Shape 5" data-pptx-id="257.8" data-pptx-path="6" transform="translate(28, 381)"><rect fill="#1e293b" stroke-width="1.333" stroke="none" width="612" height="37" rx="18.5" ry="18.5"/></g><g role="img" aria-label="Text 6" data-pptx-id="257.9" data-pptx-path="7" transform="translate(38, 391)"><rect fill="none" stroke-width="1.333" stroke="none" width="592" height="18"/><text x="0" y="15.21" xml:space="preserve"><tspan x="296" dy="0" text-anchor="middle" font-size="13" font-family="'Noto Sans JP', sans-serif" font-weight="bold" fill="#ffffff">通期予想に対する進捗率</tspan></text></g><g role="img" aria-label="Shape 7" data-pptx-id="257.10" data-pptx-path="8" transform="translate(28, 430)"><rect fill="#ffffff" stroke-width="1" stroke="#e2e8f0" width="202" height="81" rx="18.963" ry="18.963"/></g><g role="img" aria-label="Text 8" data-pptx-id="257.11" data-pptx-path="9" transform="translate(108, 440)"><rect fill="none" stroke-width="1.333" stroke="none" width="40" height="13"/><text x="0" y="11.7" xml:space="preserve"><tspan x="0" dy="0" text-anchor="start" font-size="10" font-family="'Noto Sans JP', sans-serif" fill="#64748b">売上高</tspan></text></g><g role="img" aria-label="Text 9" data-pptx-id="257.12" data-pptx-path="10" transform="translate(90, 457)"><rect fill="none" stroke-width="1.333" stroke="none" width="78" height="30"/><text x="0" y="25.74" xml:space="preserve"><tspan x="0" dy="0" text-anchor="start" font-size="22" font-family="'Noto Sans JP', sans-serif" font-weight="bold" fill="#2563eb">76.5%</tspan></text></g><g role="img" aria-label="Text 10" data-pptx-id="257.13" data-pptx-path="11" transform="translate(93, 489)"><rect fill="none" stroke-width="1.333" stroke="none" width="72" height="12"/><text x="0" y="10.53" xml:space="preserve"><tspan x="0" dy="0" text-anchor="start" font-size="9" font-family="'Noto Sans JP', sans-serif" fill="#94a3b8">予想 5,600億円</tspan></text></g><g role="img" aria-label="Shape 11" data-pptx-id="257.14" data-pptx-path="12" transform="translate(240, 430)"><rect fill="#ffffff" stroke-width="1" stroke="#e2e8f0" width="202" height="81" rx="18.963" ry="18.963"/></g><g role="img" aria-label="Text 12" data-pptx-id="257.15" data-pptx-path="13" transform="translate(315, 440)"><rect fill="none" stroke-width="1.333" stroke="none" width="50" height="13"/><text x="0" y="11.7" xml:space="preserve"><tspan x="0" dy="0" text-anchor="start" font-size="10" font-family="'Noto Sans JP', sans-serif" fill="#64748b">営業利益</tspan></text></g><g role="img" aria-label="Text 13" data-pptx-id="257.16" data-pptx-path="14" transform="translate(302, 457)"><rect fill="none" stroke-width="1.333" stroke="none" width="78" height="30"/><text x="0" y="25.74" xml:space="preserve"><tspan x="0" dy="0" text-anchor="start" font-size="22" font-family="'Noto Sans JP', sans-serif" font-weight="bold" fill="#2563eb">78.2%</tspan></text></g><g role="img" aria-label="Text 14" data-pptx-id="257.17" data-pptx-path="15" transform="translate(309, 489)"><rect fill="none" stroke-width="1.333" stroke="none" width="64" height="12"/><text x="0" y="10.53" xml:space="preserve"><tspan x="0" dy="0" text-anchor="start" font-size="9" font-family="'Noto Sans JP', sans-serif" fill="#94a3b8">予想 655億円</tspan></text></g><g role="img" aria-label="Shape 15" data-pptx-id="257.18" data-pptx-path="16" transform="translate(452, 430)"><rect fill="#ffffff" stroke-width="1" stroke="#e2e8f0" width="202" height="81" rx="18.963" ry="18.963"/></g><g role="img" aria-label="Text 16" data-pptx-id="257.19" data-pptx-path="17" transform="translate(532, 440)"><rect fill="none" stroke-width="1.333" stroke="none" width="40" height="13"/><text x="0" y="11.7" xml:space="preserve"><tspan x="0" dy="0" text-anchor="start" font-size="10" font-family="'Noto Sans JP', sans-serif" fill="#64748b">純利益</tspan></text></g><g role="img" aria-label="Text 17" data-pptx-id="257.20" data-pptx-path="18" transform="translate(514, 457)"><rect fill="none" stroke-width="1.333" stroke="none" width="78" height="30"/><text x="0" y="25.74" xml:space="preserve"><tspan x="0" dy="0" text-anchor="start" font-size="22" font-family="'Noto Sans JP', sans-serif" font-weight="bold" fill="#2563eb">77.4%</tspan></text></g><g role="img" aria-label="Text 18" data-pptx-id="257.21" data-pptx-path="19" transform="translate(521, 489)"><rect fill="none" stroke-width="1.333" stroke="none" width="64" height="12"/><text x="0" y="10.53" xml:space="preserve"><tspan x="0" dy="0" text-anchor="start" font-size="9" font-family="'Noto Sans JP', sans-serif" fill="#94a3b8">予想 424億円</tspan></text></g><g role="img" aria-label="Shape 19" data-pptx-id="257.22" data-pptx-path="20" transform="translate(656, 116)"><rect fill="#1e293b" stroke-width="1.333" stroke="none" width="612" height="37" rx="18.5" ry="18.5"/></g><g role="img" aria-label="Text 20" data-pptx-id="257.23" data-pptx-path="21" transform="translate(666, 126)"><rect fill="none" stroke-width="1.333" stroke="none" width="592" height="18"/><text x="0" y="15.21" xml:space="preserve"><tspan x="296" dy="0" text-anchor="middle" font-size="13" font-family="'Noto Sans JP', sans-serif" font-weight="bold" fill="#ffffff">四半期別 売上高・営業利益推移</tspan></text></g><g role="img" aria-label="Shape 21" data-pptx-id="257.24" data-pptx-path="22" transform="translate(656, 165)"><rect fill="#ffffff" stroke-width="1" stroke="#e2e8f0" width="612" height="214" rx="7.178" ry="7.178"/></g><g role="img" aria-label="Chart 0" data-pptx-id="257.25" data-pptx-path="23" transform="translate(668, 177) scale(1, 1) translate(0, 0)"><g transform="translate(57.971, 126.016)"><line stroke-width="1.333" stroke="#888888" stroke-linecap="butt" stroke-linejoin="round" fill="none" x1="0" y1="0" x2="310.082" y2="0"/></g><g transform="translate(57.971, 98.413)"><line stroke-width="1.333" stroke="#888888" stroke-linecap="butt" stroke-linejoin="round" fill="none" x1="0" y1="0" x2="310.082" y2="0"/></g><g transform="translate(57.971, 70.81)"><line stroke-width="1.333" stroke="#888888" stroke-linecap="butt" stroke-linejoin="round" fill="none" x1="0" y1="0" x2="310.082" y2="0"/></g><g transform="translate(57.971, 43.207)"><line stroke-width="1.333" stroke="#888888" stroke-linecap="butt" stroke-linejoin="round" fill="none" x1="0" y1="0" x2="310.082" y2="0"/></g><g transform="translate(57.971, 15.604)"><line stroke-width="1.333" stroke="#888888" stroke-linecap="butt" stroke-linejoin="round" fill="none" x1="0" y1="0" x2="310.082" y2="0"/></g><g transform="translate(80.12, 43.759)"><rect fill="#2563eb" stroke="none" width="29.532" height="109.859"/></g><g transform="translate(109.651, 140.783)"><rect fill="#93c5fd" stroke="none" width="29.532" height="12.835"/></g><g transform="translate(183.481, 39.895)"><rect fill="#2563eb" stroke="none" width="29.532" height="113.724"/></g><g transform="translate(213.012, 140.148)"><rect fill="#93c5fd" stroke="none" width="29.532" height="13.47"/></g><g transform="translate(286.841, 35.34)"><rect fill="#2563eb" stroke="none" width="29.532" height="118.278"/></g><g transform="translate(316.373, 139.486)"><rect fill="#93c5fd" stroke="none" width="29.532" height="14.133"/></g><g transform="translate(57.971, 15.604)"><line stroke-width="1.333" stroke="#888888" stroke-linecap="butt" stroke-linejoin="round" fill="none" x1="0" y1="0" x2="0" y2="138.014"/></g><g transform="translate(57.971, 153.618)"><line stroke-width="1.333" stroke="#888888" stroke-linecap="butt" stroke-linejoin="round" fill="none" x1="0" y1="0" x2="310.082" y2="0"/></g><g transform="translate(0, 142.129)"><rect fill="none" stroke="none" width="44.26" height="26.812"/><text x="0" y="15.809" xml:space="preserve"><tspan x="44.26" dy="0" text-anchor="end" font-size="16" font-family="Arial, Arimo, 游ゴシック, 'Noto Sans JP', sans-serif" fill="#000000">0</tspan></text></g><g transform="translate(0, 114.526)"><rect fill="none" stroke="none" width="44.26" height="26.812"/><text x="0" y="15.809" xml:space="preserve"><tspan x="44.26" dy="0" text-anchor="end" font-size="16" font-family="Arial, Arimo, 游ゴシック, 'Noto Sans JP', sans-serif" fill="#000000">1000</tspan></text></g><g transform="translate(0, 86.923)"><rect fill="none" stroke="none" width="44.26" height="26.812"/><text x="0" y="15.809" xml:space="preserve"><tspan x="44.26" dy="0" text-anchor="end" font-size="16" font-family="Arial, Arimo, 游ゴシック, 'Noto Sans JP', sans-serif" fill="#000000">2000</tspan></text></g><g transform="translate(0, 59.32)"><rect fill="none" stroke="none" width="44.26" height="26.812"/><text x="0" y="15.809" xml:space="preserve"><tspan x="44.26" dy="0" text-anchor="end" font-size="16" font-family="Arial, Arimo, 游ゴシック, 'Noto Sans JP', sans-serif" fill="#000000">3000</tspan></text></g><g transform="translate(0, 31.718)"><rect fill="none" stroke="none" width="44.26" height="26.812"/><text x="0" y="15.809" xml:space="preserve"><tspan x="44.26" dy="0" text-anchor="end" font-size="16" font-family="Arial, Arimo, 游ゴシック, 'Noto Sans JP', sans-serif" fill="#000000">4000</tspan></text></g><g transform="translate(0, 4.115)"><rect fill="none" stroke="none" width="44.26" height="26.812"/><text x="0" y="15.809" xml:space="preserve"><tspan x="44.26" dy="0" text-anchor="end" font-size="16" font-family="Arial, Arimo, 游ゴシック, 'Noto Sans JP', sans-serif" fill="#000000">5000</tspan></text></g><g transform="translate(57.971, 162.133)"><rect fill="none" stroke="none" width="103.361" height="26.812"/><text x="0" y="15.809" xml:space="preserve"><tspan x="51.68" dy="0" text-anchor="middle" font-size="16" font-family="Arial, Arimo, 游ゴシック, 'Noto Sans JP', sans-serif" fill="#000000">Q1</tspan></text></g><g transform="translate(161.332, 162.133)"><rect fill="none" stroke="none" width="103.361" height="26.812"/><text x="0" y="15.809" xml:space="preserve"><tspan x="51.68" dy="0" text-anchor="middle" font-size="16" font-family="Arial, Arimo, 游ゴシック, 'Noto Sans JP', sans-serif" fill="#000000">Q2</tspan></text></g><g transform="translate(264.693, 162.133)"><rect fill="none" stroke="none" width="103.361" height="26.812"/><text x="0" y="15.809" xml:space="preserve"><tspan x="51.68" dy="0" text-anchor="middle" font-size="16" font-family="Arial, Arimo, 游ゴシック, 'Noto Sans JP', sans-serif" fill="#000000">Q3</tspan></text></g><g transform="translate(389.387, 79.34)"><rect fill="#2563eb" stroke="none" width="7.32" height="7.32"/></g><g transform="translate(399.867, 74.181)"><rect fill="none" stroke="none" width="106.667" height="24.414"/><text x="0" y="12.419" xml:space="preserve"><tspan x="0" dy="0" text-anchor="start" font-size="13.333" font-family="游ゴシック, 'Noto Sans JP', Calibri, Carlito, sans-serif" fill="#000000">売上高（億円）</tspan></text></g><g transform="translate(389.387, 103.34)"><rect fill="#93c5fd" stroke="none" width="7.32" height="7.32"/></g><g transform="translate(399.867, 98.181)"><rect fill="none" stroke="none" width="111.467" height="24.414"/><text x="0" y="12.419" xml:space="preserve"><tspan x="0" dy="0" text-anchor="start" font-size="13.333" font-family="游ゴシック, 'Noto Sans JP', Calibri, Carlito, sans-serif" fill="#000000">営業利益（億円）</tspan></text></g></g><g role="img" aria-label="Shape 22" data-pptx-id="257.26" data-pptx-path="24" transform="translate(656, 391)"><rect fill="#1e293b" stroke-width="1.333" stroke="none" width="612" height="37" rx="18.5" ry="18.5"/></g><g role="img" aria-label="Text 23" data-pptx-id="257.27" data-pptx-path="25" transform="translate(666, 401)"><rect fill="none" stroke-width="1.333" stroke="none" width="592" height="18"/><text x="0" y="15.21" xml:space="preserve"><tspan x="296" dy="0" text-anchor="middle" font-size="13" font-family="'Noto Sans JP', sans-serif" font-weight="bold" fill="#ffffff">利益率推移（四半期別）</tspan></text></g><g role="img" aria-label="Shape 24" data-pptx-id="257.28" data-pptx-path="26" transform="translate(656, 440)"><rect fill="#ffffff" stroke-width="1" stroke="#e2e8f0" width="612" height="174" rx="8.827" ry="8.827"/></g><g role="img" aria-label="Chart 1" data-pptx-id="257.29" data-pptx-path="27" transform="translate(668, 452) scale(1, 1) translate(0, 0)"><g transform="translate(40.174, 94.016)"><line stroke-width="1.333" stroke="#888888" stroke-linecap="butt" stroke-linejoin="round" fill="none" x1="0" y1="0" x2="300.528" y2="0"/></g><g transform="translate(40.174, 74.413)"><line stroke-width="1.333" stroke="#888888" stroke-linecap="butt" stroke-linejoin="round" fill="none" x1="0" y1="0" x2="300.528" y2="0"/></g><g transform="translate(40.174, 54.81)"><line stroke-width="1.333" stroke="#888888" stroke-linecap="butt" stroke-linejoin="round" fill="none" x1="0" y1="0" x2="300.528" y2="0"/></g><g transform="translate(40.174, 35.207)"><line stroke-width="1.333" stroke="#888888" stroke-linecap="butt" stroke-linejoin="round" fill="none" x1="0" y1="0" x2="300.528" y2="0"/></g><g transform="translate(40.174, 15.604)"><line stroke-width="1.333" stroke="#888888" stroke-linecap="butt" stroke-linejoin="round" fill="none" x1="0" y1="0" x2="300.528" y2="0"/></g><g transform="translate(90.262, 90.291)"><path fill="none" stroke-width="2.667" stroke="#2563eb" stroke-linecap="butt" stroke-linejoin="round" d="M 0.0000 0.2940 L 75.1320 0.1470 L 150.2640 0.0000" transform="scale(1.333333333, 1.333333333)"/></g><g transform="translate(86.262, 86.683)"><ellipse fill="#2563eb" stroke-width="1" stroke="#2563eb" stroke-linecap="butt" stroke-linejoin="round" cx="4" cy="4" rx="4" ry="4"/></g><g transform="translate(186.438, 86.487)"><ellipse fill="#2563eb" stroke-width="1" stroke="#2563eb" stroke-linecap="butt" stroke-linejoin="round" cx="4" cy="4" rx="4" ry="4"/></g><g transform="translate(286.614, 86.291)"><ellipse fill="#2563eb" stroke-width="1" stroke="#2563eb" stroke-linecap="butt" stroke-linejoin="round" cx="4" cy="4" rx="4" ry="4"/></g><g transform="translate(90.262, 29.326)"><path fill="none" stroke-width="2.667" stroke="#f59e0b" stroke-linecap="butt" stroke-linejoin="round" d="M 0.0000 1.4702 L 75.1320 0.7351 L 150.2640 0.0000" transform="scale(1.333333333, 1.333333333)"/></g><g transform="translate(86.262, 27.286)"><ellipse fill="#f59e0b" stroke-width="1" stroke="#f59e0b" stroke-linecap="butt" stroke-linejoin="round" cx="4" cy="4" rx="4" ry="4"/></g><g transform="translate(186.438, 26.306)"><ellipse fill="#f59e0b" stroke-width="1" stroke="#f59e0b" stroke-linecap="butt" stroke-linejoin="round" cx="4" cy="4" rx="4" ry="4"/></g><g transform="translate(286.614, 25.326)"><ellipse fill="#f59e0b" stroke-width="1" stroke="#f59e0b" stroke-linecap="butt" stroke-linejoin="round" cx="4" cy="4" rx="4" ry="4"/></g><g transform="translate(90.262, 98.524)"><path fill="none" stroke-width="2.667" stroke="#ef4444" stroke-linecap="butt" stroke-linejoin="round" d="M 0.0000 0.4411 L 75.1320 0.2940 L 150.2640 0.0000" transform="scale(1.333333333, 1.333333333)"/></g><g transform="translate(86.262, 95.112)"><ellipse fill="#ef4444" stroke-width="1" stroke="#ef4444" stroke-linecap="butt" stroke-linejoin="round" cx="4" cy="4" rx="4" ry="4"/></g><g transform="translate(186.438, 94.916)"><ellipse fill="#ef4444" stroke-width="1" stroke="#ef4444" stroke-linecap="butt" stroke-linejoin="round" cx="4" cy="4" rx="4" ry="4"/></g><g transform="translate(286.614, 94.524)"><ellipse fill="#ef4444" stroke-width="1" stroke="#ef4444" stroke-linecap="butt" stroke-linejoin="round" cx="4" cy="4" rx="4" ry="4"/></g><g transform="translate(40.174, 15.604)"><line stroke-width="1.333" stroke="#888888" stroke-linecap="butt" stroke-linejoin="round" fill="none" x1="0" y1="0" x2="0" y2="98.014"/></g><g transform="translate(40.174, 113.618)"><line stroke-width="1.333" stroke="#888888" stroke-linecap="butt" stroke-linejoin="round" fill="none" x1="0" y1="0" x2="300.528" y2="0"/></g><g transform="translate(0, 102.129)"><rect fill="none" stroke="none" width="26.464" height="26.812"/><text x="0" y="15.809" xml:space="preserve"><tspan x="26.464" dy="0" text-anchor="end" font-size="16" font-family="Arial, Arimo, 游ゴシック, 'Noto Sans JP', sans-serif" fill="#000000">0</tspan></text></g><g transform="translate(0, 82.526)"><rect fill="none" stroke="none" width="26.464" height="26.812"/><text x="0" y="15.809" xml:space="preserve"><tspan x="26.464" dy="0" text-anchor="end" font-size="16" font-family="Arial, Arimo, 游ゴシック, 'Noto Sans JP', sans-serif" fill="#000000">10</tspan></text></g><g transform="translate(0, 62.923)"><rect fill="none" stroke="none" width="26.464" height="26.812"/><text x="0" y="15.809" xml:space="preserve"><tspan x="26.464" dy="0" text-anchor="end" font-size="16" font-family="Arial, Arimo, 游ゴシック, 'Noto Sans JP', sans-serif" fill="#000000">20</tspan></text></g><g transform="translate(0, 43.32)"><rect fill="none" stroke="none" width="26.464" height="26.812"/><text x="0" y="15.809" xml:space="preserve"><tspan x="26.464" dy="0" text-anchor="end" font-size="16" font-family="Arial, Arimo, 游ゴシック, 'Noto Sans JP', sans-serif" fill="#000000">30</tspan></text></g><g transform="translate(0, 23.718)"><rect fill="none" stroke="none" width="26.464" height="26.812"/><text x="0" y="15.809" xml:space="preserve"><tspan x="26.464" dy="0" text-anchor="end" font-size="16" font-family="Arial, Arimo, 游ゴシック, 'Noto Sans JP', sans-serif" fill="#000000">40</tspan></text></g><g transform="translate(0, 4.115)"><rect fill="none" stroke="none" width="26.464" height="26.812"/><text x="0" y="15.809" xml:space="preserve"><tspan x="26.464" dy="0" text-anchor="end" font-size="16" font-family="Arial, Arimo, 游ゴシック, 'Noto Sans JP', sans-serif" fill="#000000">50</tspan></text></g><g transform="translate(40.174, 122.133)"><rect fill="none" stroke="none" width="100.176" height="26.812"/><text x="0" y="15.809" xml:space="preserve"><tspan x="50.088" dy="0" text-anchor="middle" font-size="16" font-family="Arial, Arimo, 游ゴシック, 'Noto Sans JP', sans-serif" fill="#000000">Q1</tspan></text></g><g transform="translate(140.35, 122.133)"><rect fill="none" stroke="none" width="100.176" height="26.812"/><text x="0" y="15.809" xml:space="preserve"><tspan x="50.088" dy="0" text-anchor="middle" font-size="16" font-family="Arial, Arimo, 游ゴシック, 'Noto Sans JP', sans-serif" fill="#000000">Q2</tspan></text></g><g transform="translate(240.526, 122.133)"><rect fill="none" stroke="none" width="100.176" height="26.812"/><text x="0" y="15.809" xml:space="preserve"><tspan x="50.088" dy="0" text-anchor="middle" font-size="16" font-family="Arial, Arimo, 游ゴシック, 'Noto Sans JP', sans-serif" fill="#000000">Q3</tspan></text></g><g transform="translate(362.035, 51)"><line stroke-width="2.667" stroke="#2563eb" stroke-linecap="butt" stroke-linejoin="round" fill="none" x1="0" y1="0" x2="25.6" y2="0"/></g><g transform="translate(370.835, 47)"><ellipse fill="#2563eb" stroke-width="1" stroke="#2563eb" stroke-linecap="butt" stroke-linejoin="round" cx="4" cy="4" rx="4" ry="4"/></g><g transform="translate(390.335, 42.181)"><rect fill="none" stroke="none" width="116.198" height="24.414"/><text x="0" y="12.419" xml:space="preserve"><tspan x="0" dy="0" text-anchor="start" font-size="13.333" font-family="游ゴシック, 'Noto Sans JP', Calibri, Carlito, sans-serif" fill="#000000">営業利益率（</tspan><tspan x="80" text-anchor="start" font-size="13.333" font-family="Calibri, Carlito, 游ゴシック, 'Noto Sans JP', sans-serif" fill="#000000">%</tspan><tspan x="89.531" text-anchor="start" font-size="13.333" font-family="游ゴシック, 'Noto Sans JP', Calibri, Carlito, sans-serif" fill="#000000">）</tspan></text></g><g transform="translate(362.035, 75)"><line stroke-width="2.667" stroke="#f59e0b" stroke-linecap="butt" stroke-linejoin="round" fill="none" x1="0" y1="0" x2="25.6" y2="0"/></g><g transform="translate(370.835, 71)"><ellipse fill="#f59e0b" stroke-width="1" stroke="#f59e0b" stroke-linecap="butt" stroke-linejoin="round" cx="4" cy="4" rx="4" ry="4"/></g><g transform="translate(390.335, 66.181)"><rect fill="none" stroke="none" width="120.998" height="24.414"/><text x="0" y="12.419" xml:space="preserve"><tspan x="0" dy="0" text-anchor="start" font-size="13.333" font-family="游ゴシック, 'Noto Sans JP', Calibri, Carlito, sans-serif" fill="#000000">売上総利益率（</tspan><tspan x="93.333" text-anchor="start" font-size="13.333" font-family="Calibri, Carlito, 游ゴシック, 'Noto Sans JP', sans-serif" fill="#000000">%</tspan><tspan x="102.865" text-anchor="start" font-size="13.333" font-family="游ゴシック, 'Noto Sans JP', Calibri, Carlito, sans-serif" fill="#000000">）</tspan></text></g><g transform="translate(362.035, 99)"><line stroke-width="2.667" stroke="#ef4444" stroke-linecap="butt" stroke-linejoin="round" fill="none" x1="0" y1="0" x2="25.6" y2="0"/></g><g transform="translate(370.835, 95)"><ellipse fill="#ef4444" stroke-width="1" stroke="#ef4444" stroke-linecap="butt" stroke-linejoin="round" cx="4" cy="4" rx="4" ry="4"/></g><g transform="translate(390.335, 90.181)"><rect fill="none" stroke="none" width="102.865" height="24.414"/><text x="0" y="12.419" xml:space="preserve"><tspan x="0" dy="0" text-anchor="start" font-size="13.333" font-family="游ゴシック, 'Noto Sans JP', Calibri, Carlito, sans-serif" fill="#000000">純利益率（</tspan><tspan x="66.667" text-anchor="start" font-size="13.333" font-family="Calibri, Carlito, 游ゴシック, 'Noto Sans JP', sans-serif" fill="#000000">%</tspan><tspan x="76.198" text-anchor="start" font-size="13.333" font-family="游ゴシック, 'Noto Sans JP', Calibri, Carlito, sans-serif" fill="#000000">）</tspan></text></g></g><g role="img" aria-label="Text 25" data-pptx-id="257.30" data-pptx-path="28" transform="translate(28, 667)"><rect fill="none" stroke-width="1.333" stroke="none" width="612" height="12"/><text x="0" y="10.53" xml:space="preserve"><tspan x="0" dy="0" text-anchor="start" font-size="9" font-family="'Noto Sans JP', sans-serif" fill="#94a3b8">※数値はすべてダミーデータです</tspan></text></g><g role="img" aria-label="Text 26" data-pptx-id="257.31" data-pptx-path="29" transform="translate(640, 667)"><rect fill="none" stroke-width="1.333" stroke="none" width="612" height="12"/><text x="0" y="10.53" xml:space="preserve"><tspan x="0" dy="0" text-anchor="start" font-size="9" font-family="'Noto Sans JP', sans-serif" fill="#64748b">株式会社ネクストビジョン・ホールディングス｜2025年度 Q3 決算サマリー｜P.2</tspan></text></g></svg>