<svg xmlns="http://www.w3.org/2000/svg" xmlns:xlink="http://www.w3.org/1999/xlink" viewBox="0 0 1280 720" width="1280" height="720"><rect width="1280" height="720" fill="#f8fafc"/><g role="img" aria-label="Shape 0" data-pptx-id="258.2" data-pptx-path="0" transform="translate(28, 52)"><rect fill="#2563eb" stroke-width="1.333" stroke="none" width="6" height="40"/></g><g role="img" aria-label="Text 1" data-pptx-id="258.3" data-pptx-path="1" transform="translate(46, 48)"><rect fill="none" stroke-width="1.333" stroke="none" width="1206" height="33"/><text x="0" y="28.08" xml:space="preserve"><tspan x="0" dy="0" text-anchor="start" font-size="24" font-family="'Noto Sans JP', sans-serif" font-weight="bold" fill="#0f172a">セグメント別分析</tspan></text></g><g role="img" aria-label="Text 2" data-pptx-id="258.4" data-pptx-path="2" transform="translate(46, 81)"><rect fill="none" stroke-width="1.333" stroke="none" width="1206" height="15"/><text x="0" y="12.87" xml:space="preserve"><tspan x="0" dy="0" text-anchor="start" font-size="11" font-family="'Noto Sans JP', sans-serif" fill="#64748b">事業セグメント別の業績と構成比</tspan></text></g><g role="img" aria-label="Table 0" data-pptx-id="258.4" data-pptx-path="3" transform="translate(28, 129)"><rect x="0" y="0" width="120" height="32" fill="#1e293b"/><g transform="translate(0, 0)"><text x="0" y="9.314" xml:space="preserve"><tspan x="60" dy="0" text-anchor="middle" font-size="10" font-family="游ゴシック, 'Noto Sans JP', Calibri, Carlito, sans-serif" font-weight="bold" fill="#ffffff">セグメント</tspan></text></g><rect x="120" y="0" width="90" height="32" fill="#1e293b"/><g transform="translate(120, 0)"><text x="0" y="9.314" xml:space="preserve"><tspan x="45" dy="0" text-anchor="middle" font-size="10" font-family="游ゴシック, 'Noto Sans JP', Calibri, Carlito, sans-serif" font-weight="bold" fill="#ffffff">売上高</tspan></text></g><rect x="210" y="0" width="70" height="32" fill="#1e293b"/><g transform="translate(210, 0)"><text x="0" y="9.314" xml:space="preserve"><tspan x="35" dy="0" text-anchor="middle" font-size="10" font-family="游ゴシック, 'Noto Sans JP', Calibri, Carlito, sans-serif" font-weight="bold" fill="#ffffff">構成比</tspan></text></g><rect x="280" y="0" width="90" height="32" fill="#1e293b"/><g transform="translate(280, 0)"><text x="0" y="9.314" xml:space="preserve"><tspan x="45" dy="0" text-anchor="middle" font-size="10" font-family="游ゴシック, 'Noto Sans JP', Calibri, Carlito, sans-serif" font-weight="bold" fill="#ffffff">営業利益</tspan></text></g><rect x="370" y="0" width="70" height="32" fill="#1e293b"/><g transform="translate(370, 0)"><text x="0" y="9.314" xml:space="preserve"><tspan x="35" dy="0" text-anchor="middle" font-size="10" font-family="游ゴシック, 'Noto Sans JP', Calibri, Carlito, sans-serif" font-weight="bold" fill="#ffffff">利益率</tspan></text></g><rect x="440" y="0" width="70" height="32" fill="#1e293b"/><g transform="translate(440, 0)"><text x="0" y="9.314" xml:space="preserve"><tspan x="35" dy="0" text-anchor="middle" font-size="10" font-family="Calibri, Carlito, 游ゴシック, 'Noto Sans JP', sans-serif" font-weight="bold" fill="#ffffff">YoY</tspan></text></g><rect x="0" y="32" width="120" height="32" fill="#dbeafe"/><g transform="translate(0, 32)"><text x="0" y="9.314" xml:space="preserve"><tspan x="0" dy="0" text-anchor="start" font-size="10" font-family="游ゴシック, 'Noto Sans JP', Calibri, Carlito, sans-serif" font-weight="bold" fill="#1e293b">デジタルソリューション</tspan></text></g><rect x="120" y="32" width="90" height="32" fill="#ffffff"/><g transform="translate(120, 32)"><text x="0" y="9.314" xml:space="preserve"><tspan x="47.231" dy="0" text-anchor="start" font-size="10" font-family="Calibri, Carlito, 游ゴシック, 'Noto Sans JP', sans-serif" fill="#1e293b">1,842</tspan><tspan x="70" text-anchor="start" font-size="10" font-family="游ゴシック, 'Noto Sans JP', Calibri, Carlito, sans-serif" fill="#1e293b">億円</tspan></text></g><rect x="210" y="32" width="70" height="32" fill="#eff6ff"/><g transform="translate(210, 32)"><text x="0" y="9.314" xml:space="preserve"><tspan x="35" dy="0" text-anchor="middle" font-size="10" font-family="Calibri, Carlito, 游ゴシック, 'Noto Sans JP', sans-serif" font-weight="bold" fill="#2563eb">43.0%</tspan></text></g><rect x="280" y="32" width="90" height="32" fill="#ffffff"/><g transform="translate(280, 32)"><text x="0" y="9.314" xml:space="preserve"><tspan x="54.795" dy="0" text-anchor="start" font-size="10" font-family="Calibri, Carlito, 游ゴシック, 'Noto Sans JP', sans-serif" fill="#1e293b">258</tspan><tspan x="70" text-anchor="start" font-size="10" font-family="游ゴシック, 'Noto Sans JP', Calibri, Carlito, sans-serif" fill="#1e293b">億円</tspan></text></g><rect x="370" y="32" width="70" height="32" fill="#ffffff"/><g transform="translate(370, 32)"><text x="0" y="9.314" xml:space="preserve"><tspan x="35" dy="0" text-anchor="middle" font-size="10" font-family="Calibri, Carlito, 游ゴシック, 'Noto Sans JP', sans-serif" fill="#1e293b">14.0%</tspan></text></g><rect x="440" y="32" width="70" height="32" fill="#f0fdf4"/><g transform="translate(440, 32)"><text x="0" y="9.314" xml:space="preserve"><tspan x="35" dy="0" text-anchor="middle" font-size="10" font-family="Calibri, Carlito, 游ゴシック, 'Noto Sans JP', sans-serif" font-weight="bold" fill="#059669">+15.2%</tspan></text></g><rect x="0" y="64" width="120" height="32" fill="#fef3c7"/><g transform="translate(0, 64)"><text x="0" y="9.314" xml:space="preserve"><tspan x="0" dy="0" text-anchor="start" font-size="10" font-family="游ゴシック, 'Noto Sans JP', Calibri, Carlito, sans-serif" font-weight="bold" fill="#1e293b">ビジネスプラットフォーム</tspan></text></g><rect x="120" y="64" width="90" height="32" fill="#ffffff"/><g transform="translate(120, 64)"><text x="0" y="9.314" xml:space="preserve"><tspan x="47.231" dy="0" text-anchor="start" font-size="10" font-family="Calibri, Carlito, 游ゴシック, 'Noto Sans JP', sans-serif" fill="#1e293b">1,285</tspan><tspan x="70" text-anchor="start" font-size="10" font-family="游ゴシック, 'Noto Sans JP', Calibri, Carlito, sans-serif" fill="#1e293b">億円</tspan></text></g><rect x="210" y="64" width="70" height="32" fill="#fffbeb"/><g transform="translate(210, 64)"><text x="0" y="9.314" xml:space="preserve"><tspan x="35" dy="0" text-anchor="middle" font-size="10" font-family="Calibri, Carlito, 游ゴシック, 'Noto Sans JP', sans-serif" font-weight="bold" fill="#d97706">30.0%</tspan></text></g><rect x="280" y="64" width="90" height="32" fill="#ffffff"/><g transform="translate(280, 64)"><text x="0" y="9.314" xml:space="preserve"><tspan x="54.795" dy="0" text-anchor="start" font-size="10" font-family="Calibri, Carlito, 游ゴシック, 'Noto Sans JP', sans-serif" fill="#1e293b">154</tspan><tspan x="70" text-anchor="start" font-size="10" font-family="游ゴシック, 'Noto Sans JP', Calibri, Carlito, sans-serif" fill="#1e293b">億円</tspan></text></g><rect x="370" y="64" width="70" height="32" fill="#ffffff"/><g transform="translate(370, 64)"><text x="0" y="9.314" xml:space="preserve"><tspan x="35" dy="0" text-anchor="middle" font-size="10" font-family="Calibri, Carlito, 游ゴシック, 'Noto Sans JP', sans-serif" fill="#1e293b">12.0%</tspan></text></g><rect x="440" y="64" width="70" height="32" fill="#f0fdf4"/><g transform="translate(440, 64)"><text x="0" y="9.314" xml:space="preserve"><tspan x="35" dy="0" text-anchor="middle" font-size="10" font-family="Calibri, Carlito, 游ゴシック, 'Noto Sans JP', sans-serif" font-weight="bold" fill="#059669">+8.4%</tspan></text></g><rect x="0" y="96" width="120" height="32" fill="#d1fae5"/><g transform="translate(0, 96)"><text x="0" y="9.314" xml:space="preserve"><tspan x="0" dy="0" text-anchor="start" font-size="10" font-family="游ゴシック, 'Noto Sans JP', Calibri, Carlito, sans-serif" font-weight="bold" fill="#1e293b">グローバル事業</tspan></text></g><rect x="120" y="96" width="90" height="32" fill="#ffffff"/><g transform="translate(120, 96)"><text x="0" y="9.314" xml:space="preserve"><tspan x="54.795" dy="0" text-anchor="start" font-size="10" font-family="Calibri, Carlito, 游ゴシック, 'Noto Sans JP', sans-serif" fill="#1e293b">814</tspan><tspan x="70" text-anchor="start" font-size="10" font-family="游ゴシック, 'Noto Sans JP', Calibri, Carlito, sans-serif" fill="#1e293b">億円</tspan></text></g><rect x="210" y="96" width="70" height="32" fill="#f0fdf4"/><g transform="translate(210, 96)"><text x="0" y="9.314" xml:space="preserve"><tspan x="35" dy="0" text-anchor="middle" font-size="10" font-family="Calibri, Carlito, 游ゴシック, 'Noto Sans JP', sans-serif" font-weight="bold" fill="#059669">19.0%</tspan></text></g><rect x="280" y="96" width="90" height="32" fill="#ffffff"/><g transform="translate(280, 96)"><text x="0" y="9.314" xml:space="preserve"><tspan x="59.863" dy="0" text-anchor="start" font-size="10" font-family="Calibri, Carlito, 游ゴシック, 'Noto Sans JP', sans-serif" fill="#1e293b">73</tspan><tspan x="70" text-anchor="start" font-size="10" font-family="游ゴシック, 'Noto Sans JP', Calibri, Carlito, sans-serif" fill="#1e293b">億円</tspan></text></g><rect x="370" y="96" width="70" height="32" fill="#ffffff"/><g transform="translate(370, 96)"><text x="0" y="9.314" xml:space="preserve"><tspan x="35" dy="0" text-anchor="middle" font-size="10" font-family="Calibri, Carlito, 游ゴシック, 'Noto Sans JP', sans-serif" fill="#1e293b">9.0%</tspan></text></g><rect x="440" y="96" width="70" height="32" fill="#f0fdf4"/><g transform="translate(440, 96)"><text x="0" y="9.314" xml:space="preserve"><tspan x="35" dy="0" text-anchor="middle" font-size="10" font-family="Calibri, Carlito, 游ゴシック, 'Noto Sans JP', sans-serif" font-weight="bold" fill="#059669">+22.8%</tspan></text></g><rect x="0" y="128" width="120" height="32" fill="#ede9fe"/><g transform="translate(0, 128)"><text x="0" y="9.314" xml:space="preserve"><tspan x="0" dy="0" text-anchor="start" font-size="10" font-family="游ゴシック, 'Noto Sans JP', Calibri, Carlito, sans-serif" font-weight="bold" fill="#1e293b">その他・調整</tspan></text></g><rect x="120" y="128" width="90" height="32" fill="#ffffff"/><g transform="translate(120, 128)"><text x="0" y="9.314" xml:space="preserve"><tspan x="54.795" dy="0" text-anchor="start" font-size="10" font-family="Calibri, Carlito, 游ゴシック, 'Noto Sans JP', sans-serif" fill="#1e293b">344</tspan><tspan x="70" text-anchor="start" font-size="10" font-family="游ゴシック, 'Noto Sans JP', Calibri, Carlito, sans-serif" fill="#1e293b">億円</tspan></text></g><rect x="210" y="128" width="70" height="32" fill="#f5f3ff"/><g transform="translate(210, 128)"><text x="0" y="9.314" xml:space="preserve"><tspan x="35" dy="0" text-anchor="middle" font-size="10" font-family="Calibri, Carlito, 游ゴシック, 'Noto Sans JP', sans-serif" font-weight="bold" fill="#7c3aed">8.0%</tspan></text></g><rect x="280" y="128" width="90" height="32" fill="#ffffff"/><g transform="translate(280, 128)"><text x="0" y="9.314" xml:space="preserve"><tspan x="59.863" dy="0" text-anchor="start" font-size="10" font-family="Calibri, Carlito, 游ゴシック, 'Noto Sans JP', sans-serif" fill="#1e293b">27</tspan><tspan x="70" text-anchor="start" font-size="10" font-family="游ゴシック, 'Noto Sans JP', Calibri, Carlito, sans-serif" fill="#1e293b">億円</tspan></text></g><rect x="370" y="128" width="70" height="32" fill="#ffffff"/><g transform="translate(370, 128)"><text x="0" y="9.314" xml:space="preserve"><tspan x="35" dy="0" text-anchor="middle" font-size="10" font-family="Calibri, Carlito, 游ゴシック, 'Noto Sans JP', sans-serif" fill="#1e293b">7.8%</tspan></text></g><rect x="440" y="128" width="70" height="32" fill="#f0fdf4"/><g transform="translate(440, 128)"><text x="0" y="9.314" xml:space="preserve"><tspan x="35" dy="0" text-anchor="middle" font-size="10" font-family="Calibri, Carlito, 游ゴシック, 'Noto Sans JP', sans-serif" font-weight="bold" fill="#059669">+3.1%</tspan></text></g><rect x="0" y="160" width="120" height="32" fill="#1e293b"/><g transform="translate(0, 160)"><text x="0" y="9.314" xml:space="preserve"><tspan x="60" dy="0" text-anchor="middle" font-size="10" font-family="游ゴシック, 'Noto Sans JP', Calibri, Carlito, sans-serif" font-weight="bold" fill="#ffffff">合計</tspan></text></g><rect x="120" y="160" width="90" height="32" fill="#334155"/><g transform="translate(120, 160)"><text x="0" y="9.314" xml:space="preserve"><tspan x="47.148" dy="0" text-anchor="start" font-size="10" font-family="Calibri, Carlito, 游ゴシック, 'Noto Sans JP', sans-serif" font-weight="bold" fill="#ffffff">4,285</tspan><tspan x="70" text-anchor="start" font-size="10" font-family="游ゴシック, 'Noto Sans JP', Calibri, Carlito, sans-serif" font-weight="bold" fill="#ffffff">億円</tspan></text></g><rect x="210" y="160" width="70" height="32" fill="#334155"/><g transform="translate(210, 160)"><text x="0" y="9.314" xml:space="preserve"><tspan x="35" dy="0" text-anchor="middle" font-size="10" font-family="Calibri, Carlito, 游ゴシック, 'Noto Sans JP', sans-serif" font-weight="bold" fill="#ffffff">100%</tspan></text></g><rect x="280" y="160" width="90" height="32" fill="#334155"/><g transform="translate(280, 160)"><text x="0" y="9.314" xml:space="preserve"><tspan x="54.795" dy="0" text-anchor="start" font-size="10" font-family="Calibri, Carlito, 游ゴシック, 'Noto Sans JP', sans-serif" font-weight="bold" fill="#ffffff">512</tspan><tspan x="70" text-anchor="start" font-size="10" font-family="游ゴシック, 'Noto Sans JP', Calibri, Carlito, sans-serif" font-weight="bold" fill="#ffffff">億円</tspan></text></g><rect x="370" y="160" width="70" height="32" fill="#334155"/><g transform="translate(370, 160)"><text x="0" y="9.314" xml:space="preserve"><tspan x="35" dy="0" text-anchor="middle" font-size="10" font-family="Calibri, Carlito, 游ゴシック, 'Noto Sans JP', sans-serif" font-weight="bold" fill="#ffffff">11.9%</tspan></text></g><rect x="440" y="160" width="70" height="32" fill="#334155"/><g transform="translate(440, 160)"><text x="0" y="9.314" xml:space="preserve"><tspan x="35" dy="0" text-anchor="middle" font-size="10" font-family="Calibri, Carlito, 游ゴシック, 'Noto Sans JP', sans-serif" font-weight="bold" fill="#34d399">+16.9%</tspan></text></g></g><g role="img" aria-label="Shape 3" data-pptx-id="258.6" data-pptx-path="4" transform="translate(28, 333)"><rect fill="#1e293b" stroke-width="1.333" stroke="none" width="673" height="37" rx="18.5" ry="18.5"/></g><g role="img" aria-label="Text 4" data-pptx-id="258.7" data-pptx-path="5" transform="translate(38, 343)"><rect fill="none" stroke-width="1.333" stroke="none" width="654" height="18"/><text x="0" y="15.21" xml:space="preserve"><tspan x="327" dy="0" text-anchor="middle" font-size="13" font-family="'Noto Sans JP', sans-serif" font-weight="bold" fill="#ffffff">セグメント別 売上高前年比較</tspan></text></g><g role="img" aria-label="Shape 5" data-pptx-id="258.8" data-pptx-path="6" transform="translate(28, 382)"><rect fill="#ffffff" stroke-width="1" stroke="#e2e8f0" width="673" height="204" rx="7.53" ry="7.53"/></g><g role="img" aria-label="Chart 0" data-pptx-id="258.9" data-pptx-path="7" transform="translate(40, 394) scale(1, 1) translate(0, 0)"><g transform="translate(57.971, 70.308)"><line stroke-width="1.333" stroke="#888888" stroke-linecap="butt" stroke-linejoin="round" fill="none" x1="0" y1="0" x2="343.416" y2="0"/></g><g transform="translate(57.971, 52.073)"><line stroke-width="1.333" stroke="#888888" stroke-linecap="butt" stroke-linejoin="round" fill="none" x1="0" y1="0" x2="343.416" y2="0"/></g><g transform="translate(57.971, 33.839)"><line stroke-width="1.333" stroke="#888888" stroke-linecap="butt" stroke-linejoin="round" fill="none" x1="0" y1="0" x2="343.416" y2="0"/></g><g transform="translate(57.971, 15.604)"><line stroke-width="1.333" stroke="#888888" stroke-linecap="butt" stroke-linejoin="round" fill="none" x1="0" y1="0" x2="343.416" y2="0"/></g><g transform="translate(76.368, 30.228)"><rect fill="#93c5fd" stroke="none" width="24.53" height="58.314"/></g><g transform="translate(100.898, 21.366)"><rect fill="#2563eb" stroke="none" width="24.53" height="67.176"/></g><g transform="translate(162.222, 45.327)"><rect fill="#93c5fd" stroke="none" width="24.53" height="43.216"/></g><g transform="translate(186.752, 41.68)"><rect fill="#2563eb" stroke="none" width="24.53" height="46.863"/></g><g transform="translate(248.076, 64.363)"><rect fill="#93c5fd" stroke="none" width="24.53" height="24.179"/></g><g transform="translate(272.606, 58.857)"><rect fill="#2563eb" stroke="none" width="24.53" height="29.686"/></g><g transform="translate(333.93, 76.362)"><rect fill="#93c5fd" stroke="none" width="24.53" height="12.181"/></g><g transform="translate(358.46, 75.997)"><rect fill="#2563eb" stroke="none" width="24.53" height="12.545"/></g><g transform="translate(57.971, 15.604)"><line stroke-width="1.333" stroke="#888888" stroke-linecap="butt" stroke-linejoin="round" fill="none" x1="0" y1="0" x2="0" y2="72.938"/></g><g transform="translate(57.971, 88.543)"><line stroke-width="1.333" stroke="#888888" stroke-linecap="butt" stroke-linejoin="round" fill="none" x1="0" y1="0" x2="343.416" y2="0"/></g><g transform="translate(0, 77.053)"><rect fill="none" stroke="none" width="44.26" height="26.812"/><text x="0" y="15.809" xml:space="preserve"><tspan x="44.26" dy="0" text-anchor="end" font-size="16" font-family="Arial, Arimo, 游ゴシック, 'Noto Sans JP', sans-serif" fill="#000000">0</tspan></text></g><g transform="translate(0, 58.819)"><rect fill="none" stroke="none" width="44.26" height="26.812"/><text x="0" y="15.809" xml:space="preserve"><tspan x="44.26" dy="0" text-anchor="end" font-size="16" font-family="Arial, Arimo, 游ゴシック, 'Noto Sans JP', sans-serif" fill="#000000">500</tspan></text></g><g transform="translate(0, 40.584)"><rect fill="none" stroke="none" width="44.26" height="26.812"/><text x="0" y="15.809" xml:space="preserve"><tspan x="44.26" dy="0" text-anchor="end" font-size="16" font-family="Arial, Arimo, 游ゴシック, 'Noto Sans JP', sans-serif" fill="#000000">1000</tspan></text></g><g transform="translate(0, 22.349)"><rect fill="none" stroke="none" width="44.26" height="26.812"/><text x="0" y="15.809" xml:space="preserve"><tspan x="44.26" dy="0" text-anchor="end" font-size="16" font-family="Arial, Arimo, 游ゴシック, 'Noto Sans JP', sans-serif" fill="#000000">1500</tspan></text></g><g transform="translate(0, 4.115)"><rect fill="none" stroke="none" width="44.26" height="26.812"/><text x="0" y="15.809" xml:space="preserve"><tspan x="44.26" dy="0" text-anchor="end" font-size="16" font-family="Arial, Arimo, 游ゴシック, 'Noto Sans JP', sans-serif" fill="#000000">2000</tspan></text></g><g transform="translate(42.906, 118.726) rotate(-45, 40, 17.376)"><rect fill="none" stroke="none" width="80" height="34.752"/><text x="0" y="15.809" xml:space="preserve"><tspan x="80" dy="0" text-anchor="end" font-size="16" font-family="游ゴシック, 'Noto Sans JP', Arial, Arimo, sans-serif" fill="#000000">デジタル</tspan></text></g><g transform="translate(126.417, 113.07) rotate(-45, 48, 17.376)"><rect fill="none" stroke="none" width="96" height="34.752"/><text x="0" y="15.809" xml:space="preserve"><tspan x="16" dy="0" text-anchor="start" font-size="16" font-family="游ゴシック, 'Noto Sans JP', Arial, Arimo, sans-serif" fill="#000000">プラット</tspan><tspan x="80" text-anchor="start" font-size="16" font-family="Arial, Arimo, 游ゴシック, 'Noto Sans JP', sans-serif" fill="#000000">…</tspan></text></g><g transform="translate(200.957, 124.383) rotate(-45, 48, 17.376)"><rect fill="none" stroke="none" width="96" height="34.752"/><text x="0" y="15.809" xml:space="preserve"><tspan x="96" dy="0" text-anchor="end" font-size="16" font-family="游ゴシック, 'Noto Sans JP', Arial, Arimo, sans-serif" fill="#000000">グローバル</tspan></text></g><g transform="translate(314.124, 113.07) rotate(-45, 32, 17.376)"><rect fill="none" stroke="none" width="64" height="34.752"/><text x="0" y="15.809" xml:space="preserve"><tspan x="64" dy="0" text-anchor="end" font-size="16" font-family="游ゴシック, 'Noto Sans JP', Arial, Arimo, sans-serif" fill="#000000">その他</tspan></text></g><g transform="translate(422.72, 74.34)"><rect fill="#93c5fd" stroke="none" width="7.32" height="7.32"/></g><g transform="translate(433.2, 69.181)"><rect fill="none" stroke="none" width="58.133" height="24.414"/><text x="0" y="12.419" xml:space="preserve"><tspan x="0" dy="0" text-anchor="start" font-size="13.333" font-family="游ゴシック, 'Noto Sans JP', Calibri, Carlito, sans-serif" fill="#000000">前年同期</tspan></text></g><g transform="translate(422.72, 98.34)"><rect fill="#2563eb" stroke="none" width="7.32" height="7.32"/></g><g transform="translate(433.2, 93.181)"><rect fill="none" stroke="none" width="40" height="24.414"/><text x="0" y="12.419" xml:space="preserve"><tspan x="0" dy="0" text-anchor="start" font-size="13.333" font-family="游ゴシック, 'Noto Sans JP', Calibri, Carlito, sans-serif" fill="#000000">当期</tspan></text></g></g><g role="img" aria-label="Shape 6" data-pptx-id="258.10" data-pptx-path="8" transform="translate(717, 129)"><rect fill="#1e293b" stroke-width="1.333" stroke="none" width="551" height="37" rx="18.5" ry="18.5"/></g><g role="img" aria-label="Text 7" data-pptx-id="258.11" data-pptx-path="9" transform="translate(727, 139)"><rect fill="none" stroke-width="1.333" stroke="none" width="531" height="18"/><text x="0" y="15.21" xml:space="preserve"><tspan x="265.5" dy="0" text-anchor="middle" font-size="13" font-family="'Noto Sans JP', sans-serif" font-weight="bold" fill="#ffffff">売上構成比</tspan></text></g><g role="img" aria-label="Shape 8" data-pptx-id="258.12" data-pptx-path="10" transform="translate(717, 178)"><rect fill="#ffffff" stroke-width="1" stroke="#e2e8f0" width="551" height="224" rx="6.857" ry="6.857"/></g><g role="img" aria-label="Chart 1" data-pptx-id="258.13" data-pptx-path="11" transform="translate(729, 190) scale(1, 1) translate(0, 0)"><g transform="translate(36, 14.667)"><path fill="#2563eb" stroke-width="1" stroke="#f9f9f9" stroke-linecap="butt" stroke-linejoin="round" d="M 64.0000 0.0000 C 93.9669 0.0000 119.9216 20.7936 126.4587 50.0388 C 132.9958 79.2841 118.3648 109.1496 91.2499 121.9089 L 77.6249 92.9545 C 91.1824 86.5748 98.4979 71.6420 95.2293 57.0194 C 91.9608 42.3968 78.9835 32.0000 64.0000 32.0000 Z" transform="scale(1.333333333, 1.333333333)"/></g><g transform="translate(36, 14.667)"><path fill="#f59e0b" stroke-width="1" stroke="#f9f9f9" stroke-linecap="butt" stroke-linejoin="round" d="M 91.2499 121.9089 C 72.7129 130.6318 51.1204 129.9532 33.1678 120.0836 C 15.2151 110.2141 3.0723 92.3465 0.5047 72.0213 L 32.2523 68.0107 C 33.5362 78.1733 39.6076 87.1070 48.5839 92.0418 C 57.5602 96.9766 68.3565 97.3159 77.6249 92.9545 Z" transform="scale(1.333333333, 1.333333333)"/></g><g transform="translate(36, 14.667)"><path fill="#10b981" stroke-width="1" stroke="#f9f9f9" stroke-linecap="butt" stroke-linejoin="round" d="M 0.5047 72.0213 C -2.7856 45.9764 10.1630 20.5634 33.1678 7.9164 L 48.5839 35.9582 C 37.0815 42.2817 30.6072 54.9882 32.2523 68.0107 Z" transform="scale(1.333333333, 1.333333333)"/></g><g transform="translate(36, 14.667)"><path fill="#8b5cf6" stroke-width="1" stroke="#f9f9f9" stroke-linecap="butt" stroke-linejoin="round" d="M 33.1678 7.9164 C 42.6144 2.7230 53.2199 0.0000 64.0000 0.0000 L 64.0000 32.0000 C 58.6099 32.0000 53.3072 33.3615 48.5839 35.9582 Z" transform="scale(1.333333333, 1.333333333)"/></g><g transform="translate(249.333, 35.94)"><rect fill="#2563eb" stroke="none" width="7.32" height="7.32"/></g><g transform="translate(259.813, 30.781)"><rect fill="none" stroke="none" width="111.52" height="24.414"/><text x="0" y="12.419" xml:space="preserve"><tspan x="0" dy="0" text-anchor="start" font-size="13.333" font-family="游ゴシック, 'Noto Sans JP', Calibri, Carlito, sans-serif" fill="#000000">デジタルソリュー</tspan><tspan x="0" dy="16.00" text-anchor="start" font-size="13.333" font-family="游ゴシック, 'Noto Sans JP', Calibri, Carlito, sans-serif" fill="#000000">ション</tspan></text></g><g transform="translate(249.333, 76.207)"><rect fill="#f59e0b" stroke="none" width="7.32" height="7.32"/></g><g transform="translate(259.813, 71.047)"><rect fill="none" stroke="none" width="79.681" height="24.414"/><text x="0" y="12.419" xml:space="preserve"><tspan x="0" dy="0" text-anchor="start" font-size="13.333" font-family="游ゴシック, 'Noto Sans JP', Calibri, Carlito, sans-serif" fill="#000000">ビジネス</tspan><tspan x="53.333" text-anchor="start" font-size="13.333" font-family="Calibri, Carlito, 游ゴシック, 'Noto Sans JP', sans-serif" fill="#000000">PF</tspan></text></g><g transform="translate(249.333, 116.473)"><rect fill="#10b981" stroke="none" width="7.32" height="7.32"/></g><g transform="translate(259.813, 111.314)"><rect fill="none" stroke="none" width="80" height="24.414"/><text x="0" y="12.419" xml:space="preserve"><tspan x="0" dy="0" text-anchor="start" font-size="13.333" font-family="游ゴシック, 'Noto Sans JP', Calibri, Carlito, sans-serif" fill="#000000">グローバル</tspan></text></g><g transform="translate(249.333, 156.74)"><rect fill="#8b5cf6" stroke="none" width="7.32" height="7.32"/></g><g transform="translate(259.813, 151.581)"><rect fill="none" stroke="none" width="53.333" height="24.414"/><text x="0" y="12.419" xml:space="preserve"><tspan x="0" dy="0" text-anchor="start" font-size="13.333" font-family="游ゴシック, 'Noto Sans JP', Calibri, Carlito, sans-serif" fill="#000000">その他</tspan></text></g></g><g role="img" aria-label="Shape 9" data-pptx-id="258.14" data-pptx-path="12" transform="translate(717, 414)"><rect fill="#ffffff" stroke-width="2" stroke="#2563eb" width="551" height="154" rx="14.961" ry="14.961"/></g><g role="img" aria-label="Text 10" data-pptx-id="258.15" data-pptx-path="13" transform="translate(731, 428)"><rect fill="none" stroke-width="1.333" stroke="none" width="523" height="18"/><text x="0" y="15.21" xml:space="preserve"><tspan x="0" dy="0" text-anchor="start" font-size="13" font-family="'Noto Sans JP', sans-serif" font-weight="bold" fill="#2563eb">セグメント別トピックス</tspan></text></g><g role="img" aria-label="Text 11" data-pptx-id="258.16" data-pptx-path="14" transform="translate(731, 454)"><rect fill="none" stroke-width="1.333" stroke="none" width="523" height="99"/><text x="0" y="15.3" xml:space="preserve"><tspan x="0" dy="0" text-anchor="start" font-size="10" font-family="'Noto Sans JP', sans-serif" fill="#334155">•</tspan><tspan x="36" text-anchor="start" font-size="10" font-family="'Noto Sans JP', sans-serif" fill="#334155">デジタルソリューション：AI関連サービスが前年比+42%と急成長。SaaS ARRが280億円を突破</tspan><tspan x="0" dy="20.40" text-anchor="start" font-size="10" font-family="'Noto Sans JP', sans-serif" fill="#334155">•</tspan><tspan x="36" text-anchor="start" font-size="10" font-family="'Noto Sans JP', sans-serif" fill="#334155">ビジネスPF：大型案件の受注が好調。官公庁向けDX案件が前年比+35%増</tspan><tspan x="0" dy="20.40" text-anchor="start" font-size="10" font-family="'Noto Sans JP', sans-serif" fill="#334155">•</tspan><tspan x="36" text-anchor="start" font-size="10" font-family="'Noto Sans JP', sans-serif" fill="#334155">グローバル：ASEAN地域が+28%成長。シンガポール拠点を中心に6カ国展開を加速</tspan><tspan x="0" dy="20.40" text-anchor="start" font-size="10" font-family="'Noto Sans JP', sans-serif" fill="#334155">•</tspan><tspan x="36" text-anchor="start" font-size="10" font-family="'Noto Sans JP', sans-serif" fill="#334155">その他：不採算事業の整理が完了し、利益率が前年比+2.1pt改善</tspan></text></g><g role="img" aria-label="Text 12" data-pptx-id="258.17" data-pptx-path="15" transform="translate(28, 659)"><rect fill="none" stroke-width="1.333" stroke="none" width="612" height="13"/><text x="0" y="10.53" xml:space="preserve"><tspan x="0" dy="0" text-anchor="start" font-size="9" font-family="'Noto Sans JP', sans-serif" fill="#94a3b8">※数値はすべてダミーデータです</tspan></text></g><g role="img" aria-label="Text 13" data-pptx-id="258.18" data-pptx-path="16" transform="translate(640, 659)"><rect fill="none" stroke-width="1.333" stroke="none" width="612" height="13"/><text x="0" y="10.53" xml:space="preserve"><tspan x="0" dy="0" text-anchor="start" font-size="9" font-family="'Noto Sans JP', sans-serif" fill="#64748b">株式会社ネクストビジョン・ホールディングス｜2025年度 Q3 決算サマリー｜P.3</tspan></text></g></svg>