<svg xmlns="http://www.w3.org/2000/svg" xmlns:xlink="http://www.w3.org/1999/xlink" viewBox="0 0 960 540" width="960" height="540"><rect width="960" height="540" fill="#ffffff"/><g role="img" aria-label="Caption" data-pptx-id="264.18" data-pptx-path="0" transform="translate(48, 18.667)"><rect fill="none" stroke="none" width="864" height="29.333"/><text x="0" y="13.174" xml:space="preserve"><tspan x="0" dy="0" text-anchor="start" font-size="13.333" font-family="Arial, Arimo, sans-serif" fill="#334155">9  ofPieChart - bar form, split by position</tspan></text></g><g role="img" aria-label="ofPieChart" data-pptx-id="264.108" data-pptx-path="1" transform="translate(48, 61.333) scale(1, 1) translate(0, 0)"><g transform="translate(0, 6.981)"><rect fill="none" stroke="none" width="693.333" height="31.281"/><text x="0" y="18.444" xml:space="preserve"><tspan x="346.667" dy="0" text-anchor="middle" font-size="18.667" font-family="Arial, Arimo, sans-serif">Accounts by tier</tspan></text></g><g transform="translate(14.667, 45.466)"><path fill="#3b64ad" stroke="none" d="M 250.0050 197.4336 C 216.1187 259.0726 140.1561 283.7543 76.5110 253.8052 C 12.8658 223.8561 -16.5369 149.5932 9.3568 84.1931 L 133.2431 133.2432 Z" transform="scale(1.333333333, 1.333333333)"/></g><g transform="translate(14.667, 45.466)"><path fill="#d26e2a" stroke="none" d="M 9.3568 84.1931 C 32.9023 24.7240 95.3827 -9.6249 158.2104 2.3601 L 133.2431 133.2432 Z" transform="scale(1.333333333, 1.333333333)"/></g><g transform="translate(14.667, 45.466)"><path fill="#929292" stroke="none" d="M 158.2104 2.3601 C 197.2182 9.8013 230.8740 34.2537 250.0050 69.0528 L 133.2431 133.2432 Z" transform="scale(1.333333333, 1.333333333)"/></g><g transform="translate(14.667, 45.466)"><path fill="#8fa2d4" stroke="none" d="M 250.0050 69.0528 C 271.9801 109.0253 271.9801 157.4611 250.0050 197.4336 L 133.2431 133.2432 Z" transform="scale(1.333333333, 1.333333333)"/></g><g transform="translate(545.424, 89.881)"><rect fill="#e2aa00" stroke="none" width="133.243" height="116.588"/></g><g transform="translate(545.424, 206.468)"><rect fill="#5089bc" stroke="none" width="133.243" height="83.277"/></g><g transform="translate(545.424, 289.745)"><rect fill="#62993e" stroke="none" width="133.243" height="66.622"/></g><g transform="translate(131.53, 423.527)"><rect fill="#3b64ad" stroke="none" width="7.32" height="7.32"/></g><g transform="translate(142.01, 418.543)"><rect fill="none" stroke="none" width="72.52" height="24.414"/><text x="0" y="12.243" xml:space="preserve"><tspan x="0" dy="0" text-anchor="start" font-size="13.333" font-family="Aptos, Carlito, sans-serif" fill="#000000">Enterprise</tspan></text></g><g transform="translate(207.863, 423.527)"><rect fill="#d26e2a" stroke="none" width="7.32" height="7.32"/></g><g transform="translate(218.343, 418.543)"><rect fill="none" stroke="none" width="77.975" height="24.414"/><text x="0" y="12.243" xml:space="preserve"><tspan x="0" dy="0" text-anchor="start" font-size="13.333" font-family="Aptos, Carlito, sans-serif" fill="#000000">Mid market</tspan></text></g><g transform="translate(289.652, 423.527)"><rect fill="#929292" stroke="none" width="7.32" height="7.32"/></g><g transform="translate(300.132, 418.543)"><rect fill="none" stroke="none" width="100.905" height="24.414"/><text x="0" y="12.243" xml:space="preserve"><tspan x="0" dy="0" text-anchor="start" font-size="13.333" font-family="Aptos, Carlito, sans-serif" fill="#000000">Small business</tspan></text></g><g transform="translate(394.37, 423.527)"><rect fill="#e2aa00" stroke="none" width="7.32" height="7.32"/></g><g transform="translate(404.85, 418.543)"><rect fill="none" stroke="none" width="71.953" height="24.414"/><text x="0" y="12.243" xml:space="preserve"><tspan x="0" dy="0" text-anchor="start" font-size="13.333" font-family="Aptos, Carlito, sans-serif" fill="#000000">Education</tspan></text></g><g transform="translate(470.137, 423.527)"><rect fill="#5089bc" stroke="none" width="7.32" height="7.32"/></g><g transform="translate(480.617, 418.543)"><rect fill="none" stroke="none" width="49.609" height="24.414"/><text x="0" y="12.243" xml:space="preserve"><tspan x="0" dy="0" text-anchor="start" font-size="13.333" font-family="Aptos, Carlito, sans-serif" fill="#000000">Public</tspan></text></g><g transform="translate(523.559, 423.527)"><rect fill="#62993e" stroke="none" width="7.32" height="7.32"/></g><g transform="translate(534.039, 418.543)"><rect fill="none" stroke="none" width="46.243" height="24.414"/><text x="0" y="12.243" xml:space="preserve"><tspan x="0" dy="0" text-anchor="start" font-size="13.333" font-family="Aptos, Carlito, sans-serif" fill="#000000">Other</tspan></text></g></g></svg>