<svg xmlns="http://www.w3.org/2000/svg" xmlns:xlink="http://www.w3.org/1999/xlink" viewBox="0 0 960 540" width="960" height="540"><rect width="960" height="540" fill="#ffffff"/><g role="img" aria-label="Caption" data-pptx-id="261.15" data-pptx-path="0" transform="translate(48, 18.667)"><rect fill="none" stroke="none" width="864" height="29.333"/><text x="0" y="13.174" xml:space="preserve"><tspan x="0" dy="0" text-anchor="start" font-size="13.333" font-family="Arial, Arimo, sans-serif" fill="#334155">6  bubbleChart - two series, no bubble3D (it hangs PowerPoint)</tspan></text></g><g role="img" aria-label="bubbleChart" data-pptx-id="261.105" data-pptx-path="1" transform="translate(48, 61.333) scale(1, 1) translate(0, 0)"><g transform="translate(0, 6.981)"><rect fill="none" stroke="none" width="693.333" height="31.281"/><text x="0" y="18.444" xml:space="preserve"><tspan x="346.667" dy="0" text-anchor="middle" font-size="18.667" font-family="Arial, Arimo, sans-serif">Share against growth</tspan></text></g><g transform="translate(35.268, 326.188)"><line stroke-width="0.667" stroke="#000000" fill="none" x1="0" y1="0" x2="636.276" y2="0"/></g><g transform="translate(35.268, 270.072)"><line stroke-width="0.667" stroke="#000000" fill="none" x1="0" y1="0" x2="636.276" y2="0"/></g><g transform="translate(35.268, 213.955)"><line stroke-width="0.667" stroke="#000000" fill="none" x1="0" y1="0" x2="636.276" y2="0"/></g><g transform="translate(35.268, 157.838)"><line stroke-width="0.667" stroke="#000000" fill="none" x1="0" y1="0" x2="636.276" y2="0"/></g><g transform="translate(35.268, 101.721)"><line stroke-width="0.667" stroke="#000000" fill="none" x1="0" y1="0" x2="636.276" y2="0"/></g><g transform="translate(35.268, 45.604)"><line stroke-width="0.667" stroke="#000000" fill="none" x1="0" y1="0" x2="636.276" y2="0"/></g><g transform="translate(115.967, 216.666)"><ellipse fill="#4472c4" stroke="none" cx="25.347" cy="25.347" rx="25.347" ry="25.347"/></g><g transform="translate(209.039, 119.517)"><ellipse fill="#4472c4" stroke="none" cx="38.321" cy="38.321" rx="38.321" ry="38.321"/></g><g transform="translate(333.083, 249.749)"><ellipse fill="#4472c4" stroke="none" cx="20.323" cy="20.323" rx="20.323" ry="20.323"/></g><g transform="translate(416.608, 86.935)"><ellipse fill="#4472c4" stroke="none" cx="42.844" cy="42.844" rx="42.844" ry="42.844"/></g><g transform="translate(534.455, 182.911)"><ellipse fill="#4472c4" stroke="none" cx="31.043" cy="31.043" rx="31.043" ry="31.043"/></g><g transform="translate(160.466, 292.317)"><ellipse fill="#ed7d31" stroke="none" cx="33.871" cy="33.871" rx="33.871" ry="33.871"/></g><g transform="translate(303.428, 176.459)"><ellipse fill="#ed7d31" stroke="none" cx="23.467" cy="23.467" rx="23.467" ry="23.467"/></g><g transform="translate(369.325, 134.763)"><ellipse fill="#ed7d31" stroke="none" cx="37.104" cy="37.104" rx="37.104" ry="37.104"/></g><g transform="translate(510.246, 255.36)"><ellipse fill="#ed7d31" stroke="none" cx="28.741" cy="28.741" rx="28.741" ry="28.741"/></g><g transform="translate(35.268, 45.604)"><line stroke-width="0.667" stroke="#000000" fill="none" x1="0" y1="0" x2="0" y2="336.701"/></g><g transform="translate(35.268, 382.305)"><line stroke-width="0.667" stroke="#000000" fill="none" x1="0" y1="0" x2="636.276" y2="0"/></g><g transform="translate(0, 373.662)"><rect fill="none" stroke="none" width="22.911" height="24.414"/><text x="0" y="12.243" xml:space="preserve"><tspan x="22.911" dy="0" text-anchor="end" font-size="13.333" font-family="Aptos, Carlito, sans-serif" fill="#000000">0</tspan></text></g><g transform="translate(0, 317.545)"><rect fill="none" stroke="none" width="22.911" height="24.414"/><text x="0" y="12.243" xml:space="preserve"><tspan x="22.911" dy="0" text-anchor="end" font-size="13.333" font-family="Aptos, Carlito, sans-serif" fill="#000000">2</tspan></text></g><g transform="translate(0, 261.428)"><rect fill="none" stroke="none" width="22.911" height="24.414"/><text x="0" y="12.243" xml:space="preserve"><tspan x="22.911" dy="0" text-anchor="end" font-size="13.333" font-family="Aptos, Carlito, sans-serif" fill="#000000">4</tspan></text></g><g transform="translate(0, 205.311)"><rect fill="none" stroke="none" width="22.911" height="24.414"/><text x="0" y="12.243" xml:space="preserve"><tspan x="22.911" dy="0" text-anchor="end" font-size="13.333" font-family="Aptos, Carlito, sans-serif" fill="#000000">6</tspan></text></g><g transform="translate(0, 149.194)"><rect fill="none" stroke="none" width="22.911" height="24.414"/><text x="0" y="12.243" xml:space="preserve"><tspan x="22.911" dy="0" text-anchor="end" font-size="13.333" font-family="Aptos, Carlito, sans-serif" fill="#000000">8</tspan></text></g><g transform="translate(0, 93.078)"><rect fill="none" stroke="none" width="22.911" height="24.414"/><text x="0" y="12.243" xml:space="preserve"><tspan x="22.911" dy="0" text-anchor="end" font-size="13.333" font-family="Aptos, Carlito, sans-serif" fill="#000000">10</tspan></text></g><g transform="translate(0, 36.961)"><rect fill="none" stroke="none" width="22.911" height="24.414"/><text x="0" y="12.243" xml:space="preserve"><tspan x="22.911" dy="0" text-anchor="end" font-size="13.333" font-family="Aptos, Carlito, sans-serif" fill="#000000">12</tspan></text></g><g transform="translate(25.04, 390.781)"><rect fill="none" stroke="none" width="20.456" height="24.414"/><text x="0" y="12.243" xml:space="preserve"><tspan x="10.228" dy="0" text-anchor="middle" font-size="13.333" font-family="Aptos, Carlito, sans-serif" fill="#000000">0</tspan></text></g><g transform="translate(131.086, 390.781)"><rect fill="none" stroke="none" width="20.456" height="24.414"/><text x="0" y="12.243" xml:space="preserve"><tspan x="10.228" dy="0" text-anchor="middle" font-size="13.333" font-family="Aptos, Carlito, sans-serif" fill="#000000">2</tspan></text></g><g transform="translate(237.132, 390.781)"><rect fill="none" stroke="none" width="20.456" height="24.414"/><text x="0" y="12.243" xml:space="preserve"><tspan x="10.228" dy="0" text-anchor="middle" font-size="13.333" font-family="Aptos, Carlito, sans-serif" fill="#000000">4</tspan></text></g><g transform="translate(343.178, 390.781)"><rect fill="none" stroke="none" width="20.456" height="24.414"/><text x="0" y="12.243" xml:space="preserve"><tspan x="10.228" dy="0" text-anchor="middle" font-size="13.333" font-family="Aptos, Carlito, sans-serif" fill="#000000">6</tspan></text></g><g transform="translate(449.224, 390.781)"><rect fill="none" stroke="none" width="20.456" height="24.414"/><text x="0" y="12.243" xml:space="preserve"><tspan x="10.228" dy="0" text-anchor="middle" font-size="13.333" font-family="Aptos, Carlito, sans-serif" fill="#000000">8</tspan></text></g><g transform="translate(551.709, 390.781)"><rect fill="none" stroke="none" width="27.578" height="24.414"/><text x="0" y="12.243" xml:space="preserve"><tspan x="13.789" dy="0" text-anchor="middle" font-size="13.333" font-family="Aptos, Carlito, sans-serif" fill="#000000">10</tspan></text></g><g transform="translate(657.755, 390.781)"><rect fill="none" stroke="none" width="27.578" height="24.414"/><text x="0" y="12.243" xml:space="preserve"><tspan x="13.789" dy="0" text-anchor="middle" font-size="13.333" font-family="Aptos, Carlito, sans-serif" fill="#000000">12</tspan></text></g><g transform="translate(288.61, 423.527)"><rect fill="#4472c4" stroke="none" width="7.32" height="7.32"/></g><g transform="translate(299.09, 418.543)"><rect fill="none" stroke="none" width="52.786" height="24.414"/><text x="0" y="12.243" xml:space="preserve"><tspan x="0" dy="0" text-anchor="start" font-size="13.333" font-family="Aptos, Carlito, sans-serif" fill="#000000">Region</tspan></text></g><g transform="translate(350.543, 423.527)"><rect fill="#ed7d31" stroke="none" width="7.32" height="7.32"/></g><g transform="translate(361.023, 418.543)"><rect fill="none" stroke="none" width="62.194" height="24.414"/><text x="0" y="12.243" xml:space="preserve"><tspan x="0" dy="0" text-anchor="start" font-size="13.333" font-family="Aptos, Carlito, sans-serif" fill="#000000">Channel</tspan></text></g></g></svg>