<svg xmlns="http://www.w3.org/2000/svg" xmlns:xlink="http://www.w3.org/1999/xlink" viewBox="0 0 960 540" width="960" height="540"><rect width="960" height="540" fill="#ffffff"/><g role="img" aria-label="Caption" data-pptx-id="272.26" data-pptx-path="0" transform="translate(48, 18.667)"><rect fill="none" stroke="none" width="864" height="29.333"/><text x="0" y="13.174" xml:space="preserve"><tspan x="0" dy="0" text-anchor="start" font-size="13.333" font-family="Arial, Arimo, sans-serif" fill="#334155">17  combo - barChart plus lineChart on a secondary value axis</tspan></text></g><g role="img" aria-label="combo" data-pptx-id="272.116" data-pptx-path="1" transform="translate(48, 61.333) scale(1, 1) translate(0, 0)"><g transform="translate(0, 6.981)"><rect fill="none" stroke="none" width="864" height="31.281"/><text x="0" y="18.444" xml:space="preserve"><tspan x="432" dy="0" text-anchor="middle" font-size="18.667" font-family="Arial, Arimo, sans-serif">Revenue and margin</tspan></text></g><g transform="translate(42.39, 344.894)"><line stroke-width="0.667" stroke="#000000" fill="none" x1="0" y1="0" x2="786.342" y2="0"/></g><g transform="translate(42.39, 307.483)"><line stroke-width="0.667" stroke="#000000" fill="none" x1="0" y1="0" x2="786.342" y2="0"/></g><g transform="translate(42.39, 270.072)"><line stroke-width="0.667" stroke="#000000" fill="none" x1="0" y1="0" x2="786.342" y2="0"/></g><g transform="translate(42.39, 232.66)"><line stroke-width="0.667" stroke="#000000" fill="none" x1="0" y1="0" x2="786.342" y2="0"/></g><g transform="translate(42.39, 195.249)"><line stroke-width="0.667" stroke="#000000" fill="none" x1="0" y1="0" x2="786.342" y2="0"/></g><g transform="translate(42.39, 157.838)"><line stroke-width="0.667" stroke="#000000" fill="none" x1="0" y1="0" x2="786.342" y2="0"/></g><g transform="translate(42.39, 120.427)"><line stroke-width="0.667" stroke="#000000" fill="none" x1="0" y1="0" x2="786.342" y2="0"/></g><g transform="translate(42.39, 83.015)"><line stroke-width="0.667" stroke="#000000" fill="none" x1="0" y1="0" x2="786.342" y2="0"/></g><g transform="translate(42.39, 45.604)"><line stroke-width="0.667" stroke="#000000" fill="none" x1="0" y1="0" x2="786.342" y2="0"/></g><g transform="translate(101.366, 157.838)"><rect fill="#4472c4" stroke="none" width="78.634" height="224.467"/></g><g transform="translate(297.951, 105.462)"><rect fill="#4472c4" stroke="none" width="78.634" height="276.843"/></g><g transform="translate(494.537, 137.262)"><rect fill="#4472c4" stroke="none" width="78.634" height="245.044"/></g><g transform="translate(691.122, 71.792)"><rect fill="#4472c4" stroke="none" width="78.634" height="310.513"/></g><g transform="translate(140.683, 62.439)"><path fill="none" stroke-width="2" stroke="#ed7d31" stroke-linecap="round" d="M 0.0000 42.6137 L 147.4391 18.9394 L 294.8781 53.6617 L 442.3172 0.0000" transform="scale(1.333333333, 1.333333333)"/></g><g transform="translate(137.35, 115.924)"><ellipse fill="#ed7d31" stroke-width="0.667" stroke="#ed7d31" cx="3.333" cy="3.333" rx="3.333" ry="3.333"/></g><g transform="translate(333.935, 84.358)"><ellipse fill="#ed7d31" stroke-width="0.667" stroke="#ed7d31" cx="3.333" cy="3.333" rx="3.333" ry="3.333"/></g><g transform="translate(530.521, 130.655)"><ellipse fill="#ed7d31" stroke-width="0.667" stroke="#ed7d31" cx="3.333" cy="3.333" rx="3.333" ry="3.333"/></g><g transform="translate(727.106, 59.106)"><ellipse fill="#ed7d31" stroke-width="0.667" stroke="#ed7d31" cx="3.333" cy="3.333" rx="3.333" ry="3.333"/></g><g transform="translate(42.39, 45.604)"><line stroke-width="0.667" stroke="#000000" fill="none" x1="0" y1="0" x2="0" y2="336.701"/></g><g transform="translate(42.39, 382.305)"><line stroke-width="0.667" stroke="#000000" fill="none" x1="0" y1="0" x2="786.342" y2="0"/></g><g transform="translate(828.732, 45.604)"><line stroke-width="0.667" stroke="#000000" fill="none" x1="0" y1="0" x2="0" y2="336.701"/></g><g transform="translate(0, 373.662)"><rect fill="none" stroke="none" width="30.034" height="24.414"/><text x="0" y="12.243" xml:space="preserve"><tspan x="30.034" dy="0" text-anchor="end" font-size="13.333" font-family="Aptos, Carlito, sans-serif" fill="#000000">0</tspan></text></g><g transform="translate(0, 336.25)"><rect fill="none" stroke="none" width="30.034" height="24.414"/><text x="0" y="12.243" xml:space="preserve"><tspan x="30.034" dy="0" text-anchor="end" font-size="13.333" font-family="Aptos, Carlito, sans-serif" fill="#000000">20</tspan></text></g><g transform="translate(0, 298.839)"><rect fill="none" stroke="none" width="30.034" height="24.414"/><text x="0" y="12.243" xml:space="preserve"><tspan x="30.034" dy="0" text-anchor="end" font-size="13.333" font-family="Aptos, Carlito, sans-serif" fill="#000000">40</tspan></text></g><g transform="translate(0, 261.428)"><rect fill="none" stroke="none" width="30.034" height="24.414"/><text x="0" y="12.243" xml:space="preserve"><tspan x="30.034" dy="0" text-anchor="end" font-size="13.333" font-family="Aptos, Carlito, sans-serif" fill="#000000">60</tspan></text></g><g transform="translate(0, 224.017)"><rect fill="none" stroke="none" width="30.034" height="24.414"/><text x="0" y="12.243" xml:space="preserve"><tspan x="30.034" dy="0" text-anchor="end" font-size="13.333" font-family="Aptos, Carlito, sans-serif" fill="#000000">80</tspan></text></g><g transform="translate(0, 186.606)"><rect fill="none" stroke="none" width="30.034" height="24.414"/><text x="0" y="12.243" xml:space="preserve"><tspan x="30.034" dy="0" text-anchor="end" font-size="13.333" font-family="Aptos, Carlito, sans-serif" fill="#000000">100</tspan></text></g><g transform="translate(0, 149.194)"><rect fill="none" stroke="none" width="30.034" height="24.414"/><text x="0" y="12.243" xml:space="preserve"><tspan x="30.034" dy="0" text-anchor="end" font-size="13.333" font-family="Aptos, Carlito, sans-serif" fill="#000000">120</tspan></text></g><g transform="translate(0, 111.783)"><rect fill="none" stroke="none" width="30.034" height="24.414"/><text x="0" y="12.243" xml:space="preserve"><tspan x="30.034" dy="0" text-anchor="end" font-size="13.333" font-family="Aptos, Carlito, sans-serif" fill="#000000">140</tspan></text></g><g transform="translate(0, 74.372)"><rect fill="none" stroke="none" width="30.034" height="24.414"/><text x="0" y="12.243" xml:space="preserve"><tspan x="30.034" dy="0" text-anchor="end" font-size="13.333" font-family="Aptos, Carlito, sans-serif" fill="#000000">160</tspan></text></g><g transform="translate(0, 36.961)"><rect fill="none" stroke="none" width="30.034" height="24.414"/><text x="0" y="12.243" xml:space="preserve"><tspan x="30.034" dy="0" text-anchor="end" font-size="13.333" font-family="Aptos, Carlito, sans-serif" fill="#000000">180</tspan></text></g><g transform="translate(42.39, 390.781)"><rect fill="none" stroke="none" width="196.585" height="24.414"/><text x="0" y="12.243" xml:space="preserve"><tspan x="98.293" dy="0" text-anchor="middle" font-size="13.333" font-family="Aptos, Carlito, sans-serif" fill="#000000">Q1</tspan></text></g><g transform="translate(238.976, 390.781)"><rect fill="none" stroke="none" width="196.585" height="24.414"/><text x="0" y="12.243" xml:space="preserve"><tspan x="98.293" dy="0" text-anchor="middle" font-size="13.333" font-family="Aptos, Carlito, sans-serif" fill="#000000">Q2</tspan></text></g><g transform="translate(435.561, 390.781)"><rect fill="none" stroke="none" width="196.585" height="24.414"/><text x="0" y="12.243" xml:space="preserve"><tspan x="98.293" dy="0" text-anchor="middle" font-size="13.333" font-family="Aptos, Carlito, sans-serif" fill="#000000">Q3</tspan></text></g><g transform="translate(632.147, 390.781)"><rect fill="none" stroke="none" width="196.585" height="24.414"/><text x="0" y="12.243" xml:space="preserve"><tspan x="98.293" dy="0" text-anchor="middle" font-size="13.333" font-family="Aptos, Carlito, sans-serif" fill="#000000">Q4</tspan></text></g><g transform="translate(841.089, 373.662)"><rect fill="none" stroke="none" width="22.911" height="24.414"/><text x="0" y="12.243" xml:space="preserve"><tspan x="0" dy="0" text-anchor="start" font-size="13.333" font-family="Aptos, Carlito, sans-serif" fill="#000000">0</tspan></text></g><g transform="translate(841.089, 331.574)"><rect fill="none" stroke="none" width="22.911" height="24.414"/><text x="0" y="12.243" xml:space="preserve"><tspan x="0" dy="0" text-anchor="start" font-size="13.333" font-family="Aptos, Carlito, sans-serif" fill="#000000">2</tspan></text></g><g transform="translate(841.089, 289.486)"><rect fill="none" stroke="none" width="22.911" height="24.414"/><text x="0" y="12.243" xml:space="preserve"><tspan x="0" dy="0" text-anchor="start" font-size="13.333" font-family="Aptos, Carlito, sans-serif" fill="#000000">4</tspan></text></g><g transform="translate(841.089, 247.399)"><rect fill="none" stroke="none" width="22.911" height="24.414"/><text x="0" y="12.243" xml:space="preserve"><tspan x="0" dy="0" text-anchor="start" font-size="13.333" font-family="Aptos, Carlito, sans-serif" fill="#000000">6</tspan></text></g><g transform="translate(841.089, 205.311)"><rect fill="none" stroke="none" width="22.911" height="24.414"/><text x="0" y="12.243" xml:space="preserve"><tspan x="0" dy="0" text-anchor="start" font-size="13.333" font-family="Aptos, Carlito, sans-serif" fill="#000000">8</tspan></text></g><g transform="translate(841.089, 163.224)"><rect fill="none" stroke="none" width="22.911" height="24.414"/><text x="0" y="12.243" xml:space="preserve"><tspan x="0" dy="0" text-anchor="start" font-size="13.333" font-family="Aptos, Carlito, sans-serif" fill="#000000">10</tspan></text></g><g transform="translate(841.089, 121.136)"><rect fill="none" stroke="none" width="22.911" height="24.414"/><text x="0" y="12.243" xml:space="preserve"><tspan x="0" dy="0" text-anchor="start" font-size="13.333" font-family="Aptos, Carlito, sans-serif" fill="#000000">12</tspan></text></g><g transform="translate(841.089, 79.048)"><rect fill="none" stroke="none" width="22.911" height="24.414"/><text x="0" y="12.243" xml:space="preserve"><tspan x="0" dy="0" text-anchor="start" font-size="13.333" font-family="Aptos, Carlito, sans-serif" fill="#000000">14</tspan></text></g><g transform="translate(841.089, 36.961)"><rect fill="none" stroke="none" width="22.911" height="24.414"/><text x="0" y="12.243" xml:space="preserve"><tspan x="0" dy="0" text-anchor="start" font-size="13.333" font-family="Aptos, Carlito, sans-serif" fill="#000000">16</tspan></text></g><g transform="translate(351.553, 423.527)"><rect fill="#4472c4" stroke="none" width="25.6" height="7.32"/></g><g transform="translate(379.853, 418.543)"><rect fill="none" stroke="none" width="63.314" height="24.414"/><text x="0" y="12.243" xml:space="preserve"><tspan x="0" dy="0" text-anchor="start" font-size="13.333" font-family="Aptos, Carlito, sans-serif" fill="#000000">Revenue</tspan></text></g><g transform="translate(436.5, 427.187)"><line stroke-width="2" stroke="#ed7d31" stroke-linecap="round" fill="none" x1="0" y1="0" x2="25.6" y2="0"/></g><g transform="translate(445.967, 423.853)"><ellipse fill="#ed7d31" stroke-width="0.667" stroke="#ed7d31" cx="3.333" cy="3.333" rx="3.333" ry="3.333"/></g><g transform="translate(464.8, 418.543)"><rect fill="none" stroke="none" width="66.126" height="24.414"/><text x="0" y="12.243" xml:space="preserve"><tspan x="0" dy="0" text-anchor="start" font-size="13.333" font-family="Aptos, Carlito, sans-serif" fill="#000000">Margin %</tspan></text></g></g></svg>