<svg xmlns="http://www.w3.org/2000/svg" xmlns:xlink="http://www.w3.org/1999/xlink" viewBox="0 0 960 540" width="960" height="540"><rect width="960" height="540" fill="#ffffff"/><g role="img" aria-label="Caption" data-pptx-id="269.23" data-pptx-path="0" transform="translate(48, 18.667)"><rect fill="none" stroke="none" width="864" height="29.333"/><text x="0" y="13.174" xml:space="preserve"><tspan x="0" dy="0" text-anchor="start" font-size="13.333" font-family="Arial, Arimo, sans-serif" fill="#334155">14  line3DChart - parses as lineChart and draws flat</tspan></text></g><g role="img" aria-label="line3DChart" data-pptx-id="269.113" data-pptx-path="1" transform="translate(48, 61.333) scale(1, 1) translate(0, 0)"><g transform="translate(37.484, 292.324)"><line stroke-width="0.667" stroke="#000000" fill="none" x1="0" y1="0" x2="561.058" y2="0"/></g><g transform="translate(37.484, 260.252)"><line stroke-width="0.667" stroke="#000000" fill="none" x1="0" y1="0" x2="561.058" y2="0"/></g><g transform="translate(37.484, 228.179)"><line stroke-width="0.667" stroke="#000000" fill="none" x1="0" y1="0" x2="561.058" y2="0"/></g><g transform="translate(37.484, 196.107)"><line stroke-width="0.667" stroke="#000000" fill="none" x1="0" y1="0" x2="561.058" y2="0"/></g><g transform="translate(37.484, 164.035)"><line stroke-width="0.667" stroke="#000000" fill="none" x1="0" y1="0" x2="561.058" y2="0"/></g><g transform="translate(37.484, 131.962)"><line stroke-width="0.667" stroke="#000000" fill="none" x1="0" y1="0" x2="561.058" y2="0"/></g><g transform="translate(107.616, 151.206)"><path fill="none" stroke-width="2" stroke="#4472c4" stroke-linecap="round" d="M 0.0000 62.5411 L 105.1983 28.8651 L 210.3967 38.4868 L 315.5950 0.0000" transform="scale(1.333333333, 1.333333333)"/></g><g transform="translate(103.616, 230.594)"><polygon fill="#4472c4" stroke-width="0.667" stroke="#4472c4" points="4,0 8,4 4,8 0,4"/></g><g transform="translate(243.881, 185.692)"><polygon fill="#4472c4" stroke-width="0.667" stroke="#4472c4" points="4,0 8,4 4,8 0,4"/></g><g transform="translate(384.145, 198.521)"><polygon fill="#4472c4" stroke-width="0.667" stroke="#4472c4" points="4,0 8,4 4,8 0,4"/></g><g transform="translate(524.41, 147.206)"><polygon fill="#4472c4" stroke-width="0.667" stroke="#4472c4" points="4,0 8,4 4,8 0,4"/></g><g transform="translate(107.616, 183.278)"><path fill="none" stroke-width="2" stroke="#ed7d31" stroke-linecap="round" d="M 0.0000 62.5411 L 105.1983 43.2977 L 210.3967 0.0000 L 315.5950 19.2434" transform="scale(1.333333333, 1.333333333)"/></g><g transform="translate(103.616, 262.666)"><rect fill="#ed7d31" stroke-width="0.667" stroke="#ed7d31" width="8" height="8"/></g><g transform="translate(243.881, 237.008)"><rect fill="#ed7d31" stroke-width="0.667" stroke="#ed7d31" width="8" height="8"/></g><g transform="translate(384.145, 179.278)"><rect fill="#ed7d31" stroke-width="0.667" stroke="#ed7d31" width="8" height="8"/></g><g transform="translate(524.41, 204.936)"><rect fill="#ed7d31" stroke-width="0.667" stroke="#ed7d31" width="8" height="8"/></g><g transform="translate(37.484, 131.962)"><line stroke-width="0.667" stroke="#000000" fill="none" x1="0" y1="0" x2="0" y2="192.434"/></g><g transform="translate(37.484, 324.396)"><line stroke-width="0.667" stroke="#000000" fill="none" x1="0" y1="0" x2="561.058" y2="0"/></g><g transform="translate(0, 315.753)"><rect fill="none" stroke="none" width="25.128" height="24.414"/><text x="0" y="12.243" xml:space="preserve"><tspan x="25.128" dy="0" text-anchor="end" font-size="13.333" font-family="Aptos, Carlito, sans-serif" fill="#000000">0</tspan></text></g><g transform="translate(0, 283.681)"><rect fill="none" stroke="none" width="25.128" height="24.414"/><text x="0" y="12.243" xml:space="preserve"><tspan x="25.128" dy="0" text-anchor="end" font-size="13.333" font-family="Aptos, Carlito, sans-serif" fill="#000000">5</tspan></text></g><g transform="translate(0, 251.608)"><rect fill="none" stroke="none" width="25.128" height="24.414"/><text x="0" y="12.243" xml:space="preserve"><tspan x="25.128" dy="0" text-anchor="end" font-size="13.333" font-family="Aptos, Carlito, sans-serif" fill="#000000">10</tspan></text></g><g transform="translate(0, 219.536)"><rect fill="none" stroke="none" width="25.128" height="24.414"/><text x="0" y="12.243" xml:space="preserve"><tspan x="25.128" dy="0" text-anchor="end" font-size="13.333" font-family="Aptos, Carlito, sans-serif" fill="#000000">15</tspan></text></g><g transform="translate(0, 187.463)"><rect fill="none" stroke="none" width="25.128" height="24.414"/><text x="0" y="12.243" xml:space="preserve"><tspan x="25.128" dy="0" text-anchor="end" font-size="13.333" font-family="Aptos, Carlito, sans-serif" fill="#000000">20</tspan></text></g><g transform="translate(0, 155.391)"><rect fill="none" stroke="none" width="25.128" height="24.414"/><text x="0" y="12.243" xml:space="preserve"><tspan x="25.128" dy="0" text-anchor="end" font-size="13.333" font-family="Aptos, Carlito, sans-serif" fill="#000000">25</tspan></text></g><g transform="translate(0, 123.319)"><rect fill="none" stroke="none" width="25.128" height="24.414"/><text x="0" y="12.243" xml:space="preserve"><tspan x="25.128" dy="0" text-anchor="end" font-size="13.333" font-family="Aptos, Carlito, sans-serif" fill="#000000">30</tspan></text></g><g transform="translate(37.484, 333.019)"><rect fill="none" stroke="none" width="140.264" height="24.414"/><text x="0" y="12.243" xml:space="preserve"><tspan x="70.132" dy="0" text-anchor="middle" font-size="13.333" font-family="Aptos, Carlito, sans-serif" fill="#000000">Q1</tspan></text></g><g transform="translate(177.749, 333.019)"><rect fill="none" stroke="none" width="140.264" height="24.414"/><text x="0" y="12.243" xml:space="preserve"><tspan x="70.132" dy="0" text-anchor="middle" font-size="13.333" font-family="Aptos, Carlito, sans-serif" fill="#000000">Q2</tspan></text></g><g transform="translate(318.013, 333.019)"><rect fill="none" stroke="none" width="140.264" height="24.414"/><text x="0" y="12.243" xml:space="preserve"><tspan x="70.132" dy="0" text-anchor="middle" font-size="13.333" font-family="Aptos, Carlito, sans-serif" fill="#000000">Q3</tspan></text></g><g transform="translate(458.277, 333.019)"><rect fill="none" stroke="none" width="140.264" height="24.414"/><text x="0" y="12.243" xml:space="preserve"><tspan x="70.132" dy="0" text-anchor="middle" font-size="13.333" font-family="Aptos, Carlito, sans-serif" fill="#000000">Q4</tspan></text></g><g transform="translate(281.053, 427.943)"><line stroke-width="2" stroke="#4472c4" stroke-linecap="round" fill="none" x1="0" y1="0" x2="25.6" y2="0"/></g><g transform="translate(289.853, 423.943)"><polygon fill="#4472c4" stroke-width="0.667" stroke="#4472c4" points="4,0 8,4 4,8 0,4"/></g><g transform="translate(309.353, 419.3)"><rect fill="none" stroke="none" width="46.224" height="24.414"/><text x="0" y="12.243" xml:space="preserve"><tspan x="0" dy="0" text-anchor="start" font-size="13.333" font-family="Aptos, Carlito, sans-serif" fill="#000000">North</tspan></text></g><g transform="translate(354.67, 427.943)"><line stroke-width="2" stroke="#ed7d31" stroke-linecap="round" fill="none" x1="0" y1="0" x2="25.6" y2="0"/></g><g transform="translate(363.47, 423.943)"><rect fill="#ed7d31" stroke-width="0.667" stroke="#ed7d31" width="8" height="8"/></g><g transform="translate(382.97, 419.3)"><rect fill="none" stroke="none" width="47.344" height="24.414"/><text x="0" y="12.243" xml:space="preserve"><tspan x="0" dy="0" text-anchor="start" font-size="13.333" font-family="Aptos, Carlito, sans-serif" fill="#000000">South</tspan></text></g></g></svg>