<svg xmlns="http://www.w3.org/2000/svg" xmlns:xlink="http://www.w3.org/1999/xlink" viewBox="0 0 960 540" width="960" height="540"><rect width="960" height="540" fill="#ffffff"/><g role="img" aria-label="Caption" data-pptx-id="257.11" data-pptx-path="0" transform="translate(48, 18.667)"><rect fill="none" stroke="none" width="864" height="29.333"/><text x="0" y="13.174" xml:space="preserve"><tspan x="0" dy="0" text-anchor="start" font-size="13.333" font-family="Arial, Arimo, sans-serif" fill="#334155">2  barChart - horizontal bars, value axis along the bottom, data labels</tspan></text></g><g role="img" aria-label="barChart-bar" data-pptx-id="257.101" data-pptx-path="1" transform="translate(48, 61.333) scale(1, 1) translate(0, 0)"><g transform="translate(232.758, 14.667)"><line stroke-width="0.667" stroke="#000000" fill="none" x1="0" y1="0" x2="0" y2="400.044"/></g><g transform="translate(383.341, 14.667)"><line stroke-width="0.667" stroke="#000000" fill="none" x1="0" y1="0" x2="0" y2="400.044"/></g><g transform="translate(533.923, 14.667)"><line stroke-width="0.667" stroke="#000000" fill="none" x1="0" y1="0" x2="0" y2="400.044"/></g><g transform="translate(684.506, 14.667)"><line stroke-width="0.667" stroke="#000000" fill="none" x1="0" y1="0" x2="0" y2="400.044"/></g><g transform="translate(835.089, 14.667)"><line stroke-width="0.667" stroke="#000000" fill="none" x1="0" y1="0" x2="0" y2="400.044"/></g><g transform="translate(82.176, 358.705)"><rect fill="#4472c4" stroke="none" width="373.445" height="32.004"/></g><g transform="translate(82.176, 278.696)"><rect fill="#4472c4" stroke="none" width="259.002" height="32.004"/></g><g transform="translate(82.176, 198.687)"><rect fill="#4472c4" stroke="none" width="596.307" height="32.004"/></g><g transform="translate(82.176, 118.678)"><rect fill="#4472c4" stroke="none" width="192.746" height="32.004"/></g><g transform="translate(82.176, 38.669)"><rect fill="#4472c4" stroke="none" width="454.759" height="32.004"/></g><g transform="translate(82.176, 414.711)"><line stroke-width="0.667" stroke="#000000" fill="none" x1="0" y1="0" x2="752.913" y2="0"/></g><g transform="translate(82.176, 14.667)"><line stroke-width="0.667" stroke="#000000" fill="none" x1="0" y1="0" x2="0" y2="400.044"/></g><g transform="translate(71.948, 423.333)"><rect fill="none" stroke="none" width="20.456" height="24.414"/><text x="0" y="12.243" xml:space="preserve"><tspan x="10.228" dy="0" text-anchor="middle" font-size="13.333" font-family="Aptos, Carlito, sans-serif" fill="#000000">0</tspan></text></g><g transform="translate(215.408, 423.333)"><rect fill="none" stroke="none" width="34.701" height="24.414"/><text x="0" y="12.243" xml:space="preserve"><tspan x="17.35" dy="0" text-anchor="middle" font-size="13.333" font-family="Aptos, Carlito, sans-serif" fill="#000000">500</tspan></text></g><g transform="translate(362.429, 423.333)"><rect fill="none" stroke="none" width="41.823" height="24.414"/><text x="0" y="12.243" xml:space="preserve"><tspan x="20.911" dy="0" text-anchor="middle" font-size="13.333" font-family="Aptos, Carlito, sans-serif" fill="#000000">1000</tspan></text></g><g transform="translate(513.012, 423.333)"><rect fill="none" stroke="none" width="41.823" height="24.414"/><text x="0" y="12.243" xml:space="preserve"><tspan x="20.911" dy="0" text-anchor="middle" font-size="13.333" font-family="Aptos, Carlito, sans-serif" fill="#000000">1500</tspan></text></g><g transform="translate(663.594, 423.333)"><rect fill="none" stroke="none" width="41.823" height="24.414"/><text x="0" y="12.243" xml:space="preserve"><tspan x="20.911" dy="0" text-anchor="middle" font-size="13.333" font-family="Aptos, Carlito, sans-serif" fill="#000000">2000</tspan></text></g><g transform="translate(814.177, 423.333)"><rect fill="none" stroke="none" width="41.823" height="24.414"/><text x="0" y="12.243" xml:space="preserve"><tspan x="20.911" dy="0" text-anchor="middle" font-size="13.333" font-family="Aptos, Carlito, sans-serif" fill="#000000">2500</tspan></text></g><g transform="translate(0, 366.063)"><rect fill="none" stroke="none" width="69.819" height="24.414"/><text x="0" y="12.243" xml:space="preserve"><tspan x="69.819" dy="0" text-anchor="end" font-size="13.333" font-family="Aptos, Carlito, sans-serif" fill="#000000">Direct</tspan></text></g><g transform="translate(0, 286.054)"><rect fill="none" stroke="none" width="69.819" height="24.414"/><text x="0" y="12.243" xml:space="preserve"><tspan x="69.819" dy="0" text-anchor="end" font-size="13.333" font-family="Aptos, Carlito, sans-serif" fill="#000000">Partner</tspan></text></g><g transform="translate(0, 206.045)"><rect fill="none" stroke="none" width="69.819" height="24.414"/><text x="0" y="12.243" xml:space="preserve"><tspan x="69.819" dy="0" text-anchor="end" font-size="13.333" font-family="Aptos, Carlito, sans-serif" fill="#000000">Online</tspan></text></g><g transform="translate(0, 126.036)"><rect fill="none" stroke="none" width="69.819" height="24.414"/><text x="0" y="12.243" xml:space="preserve"><tspan x="69.819" dy="0" text-anchor="end" font-size="13.333" font-family="Aptos, Carlito, sans-serif" fill="#000000">Retail</tspan></text></g><g transform="translate(0, 46.028)"><rect fill="none" stroke="none" width="69.819" height="24.414"/><text x="0" y="12.243" xml:space="preserve"><tspan x="69.819" dy="0" text-anchor="end" font-size="13.333" font-family="Aptos, Carlito, sans-serif" fill="#000000">Wholesale</tspan></text></g><g transform="translate(462.087, 366.063)"><rect fill="none" stroke="none" width="41.823" height="24.414"/><text x="0" y="12.243" xml:space="preserve"><tspan x="0" dy="0" text-anchor="start" font-size="13.333" font-family="Aptos, Carlito, sans-serif" fill="#000000">1240</tspan></text></g><g transform="translate(347.644, 286.054)"><rect fill="none" stroke="none" width="34.701" height="24.414"/><text x="0" y="12.243" xml:space="preserve"><tspan x="0" dy="0" text-anchor="start" font-size="13.333" font-family="Aptos, Carlito, sans-serif" fill="#000000">860</tspan></text></g><g transform="translate(684.949, 206.045)"><rect fill="none" stroke="none" width="41.823" height="24.414"/><text x="0" y="12.243" xml:space="preserve"><tspan x="0" dy="0" text-anchor="start" font-size="13.333" font-family="Aptos, Carlito, sans-serif" fill="#000000">1980</tspan></text></g><g transform="translate(281.388, 126.036)"><rect fill="none" stroke="none" width="34.701" height="24.414"/><text x="0" y="12.243" xml:space="preserve"><tspan x="0" dy="0" text-anchor="start" font-size="13.333" font-family="Aptos, Carlito, sans-serif" fill="#000000">640</tspan></text></g><g transform="translate(543.402, 46.028)"><rect fill="none" stroke="none" width="41.823" height="24.414"/><text x="0" y="12.243" xml:space="preserve"><tspan x="0" dy="0" text-anchor="start" font-size="13.333" font-family="Aptos, Carlito, sans-serif" fill="#000000">1510</tspan></text></g></g></svg>