<svg xmlns="http://www.w3.org/2000/svg" xmlns:xlink="http://www.w3.org/1999/xlink" viewBox="0 0 960 540" width="960" height="540"><rect width="960" height="540" fill="#ffffff"/><g role="img" aria-label="Caption" data-pptx-id="271.25" data-pptx-path="0" transform="translate(48, 18.667)"><rect fill="none" stroke="none" width="864" height="29.333"/><text x="0" y="13.174" xml:space="preserve"><tspan x="0" dy="0" text-anchor="start" font-size="13.333" font-family="Arial, Arimo, sans-serif" fill="#334155">16  area3DChart - parses as areaChart and draws flat</tspan></text></g><g role="img" aria-label="area3DChart" data-pptx-id="271.115" data-pptx-path="1" transform="translate(48, 61.333) scale(1, 1) translate(0, 0)"><g transform="translate(35.268, 345.818)"><line stroke-width="0.667" stroke="#000000" fill="none" x1="0" y1="0" x2="643.399" y2="0"/></g><g transform="translate(35.268, 309.039)"><line stroke-width="0.667" stroke="#000000" fill="none" x1="0" y1="0" x2="643.399" y2="0"/></g><g transform="translate(35.268, 272.26)"><line stroke-width="0.667" stroke="#000000" fill="none" x1="0" y1="0" x2="643.399" y2="0"/></g><g transform="translate(35.268, 235.48)"><line stroke-width="0.667" stroke="#000000" fill="none" x1="0" y1="0" x2="643.399" y2="0"/></g><g transform="translate(35.268, 198.701)"><line stroke-width="0.667" stroke="#000000" fill="none" x1="0" y1="0" x2="643.399" y2="0"/></g><g transform="translate(35.268, 161.922)"><line stroke-width="0.667" stroke="#000000" fill="none" x1="0" y1="0" x2="643.399" y2="0"/></g><g transform="translate(35.268, 125.143)"><line stroke-width="0.667" stroke="#000000" fill="none" x1="0" y1="0" x2="643.399" y2="0"/></g><g transform="translate(35.268, 88.363)"><line stroke-width="0.667" stroke="#000000" fill="none" x1="0" y1="0" x2="643.399" y2="0"/></g><g transform="translate(35.268, 51.584)"><line stroke-width="0.667" stroke="#000000" fill="none" x1="0" y1="0" x2="643.399" y2="0"/></g><g transform="translate(35.268, 14.805)"><line stroke-width="0.667" stroke="#000000" fill="none" x1="0" y1="0" x2="643.399" y2="0"/></g><g transform="translate(115.693, 125.143)"><path fill="#4472c4" stroke="none" d="M 0.0000 71.7196 L 120.6373 49.6521 L 241.2745 27.5845 L 361.9118 0.0000 L 361.9118 193.0913 L 241.2745 193.0913 L 120.6373 193.0913 L 0.0000 193.0913 Z" transform="scale(1.333333333, 1.333333333)"/></g><g transform="translate(115.693, 14.805)"><path fill="#ed7d31" stroke="none" d="M 0.0000 110.3379 L 120.6373 66.2027 L 241.2745 60.6858 L 361.9118 0.0000 L 361.9118 82.7534 L 241.2745 110.3379 L 120.6373 132.4055 L 0.0000 154.4730 Z" transform="scale(1.333333333, 1.333333333)"/></g><g transform="translate(35.268, 14.805)"><line stroke-width="0.667" stroke="#000000" fill="none" x1="0" y1="0" x2="0" y2="367.793"/></g><g transform="translate(35.268, 382.598)"><line stroke-width="0.667" stroke="#000000" fill="none" x1="0" y1="0" x2="643.399" y2="0"/></g><g transform="translate(0, 373.954)"><rect fill="none" stroke="none" width="22.911" height="24.414"/><text x="0" y="12.243" xml:space="preserve"><tspan x="22.911" dy="0" text-anchor="end" font-size="13.333" font-family="Aptos, Carlito, sans-serif" fill="#000000">0</tspan></text></g><g transform="translate(0, 337.175)"><rect fill="none" stroke="none" width="22.911" height="24.414"/><text x="0" y="12.243" xml:space="preserve"><tspan x="22.911" dy="0" text-anchor="end" font-size="13.333" font-family="Aptos, Carlito, sans-serif" fill="#000000">5</tspan></text></g><g transform="translate(0, 300.396)"><rect fill="none" stroke="none" width="22.911" height="24.414"/><text x="0" y="12.243" xml:space="preserve"><tspan x="22.911" dy="0" text-anchor="end" font-size="13.333" font-family="Aptos, Carlito, sans-serif" fill="#000000">10</tspan></text></g><g transform="translate(0, 263.616)"><rect fill="none" stroke="none" width="22.911" height="24.414"/><text x="0" y="12.243" xml:space="preserve"><tspan x="22.911" dy="0" text-anchor="end" font-size="13.333" font-family="Aptos, Carlito, sans-serif" fill="#000000">15</tspan></text></g><g transform="translate(0, 226.837)"><rect fill="none" stroke="none" width="22.911" height="24.414"/><text x="0" y="12.243" xml:space="preserve"><tspan x="22.911" dy="0" text-anchor="end" font-size="13.333" font-family="Aptos, Carlito, sans-serif" fill="#000000">20</tspan></text></g><g transform="translate(0, 190.058)"><rect fill="none" stroke="none" width="22.911" height="24.414"/><text x="0" y="12.243" xml:space="preserve"><tspan x="22.911" dy="0" text-anchor="end" font-size="13.333" font-family="Aptos, Carlito, sans-serif" fill="#000000">25</tspan></text></g><g transform="translate(0, 153.278)"><rect fill="none" stroke="none" width="22.911" height="24.414"/><text x="0" y="12.243" xml:space="preserve"><tspan x="22.911" dy="0" text-anchor="end" font-size="13.333" font-family="Aptos, Carlito, sans-serif" fill="#000000">30</tspan></text></g><g transform="translate(0, 116.499)"><rect fill="none" stroke="none" width="22.911" height="24.414"/><text x="0" y="12.243" xml:space="preserve"><tspan x="22.911" dy="0" text-anchor="end" font-size="13.333" font-family="Aptos, Carlito, sans-serif" fill="#000000">35</tspan></text></g><g transform="translate(0, 79.72)"><rect fill="none" stroke="none" width="22.911" height="24.414"/><text x="0" y="12.243" xml:space="preserve"><tspan x="22.911" dy="0" text-anchor="end" font-size="13.333" font-family="Aptos, Carlito, sans-serif" fill="#000000">40</tspan></text></g><g transform="translate(0, 42.94)"><rect fill="none" stroke="none" width="22.911" height="24.414"/><text x="0" y="12.243" xml:space="preserve"><tspan x="22.911" dy="0" text-anchor="end" font-size="13.333" font-family="Aptos, Carlito, sans-serif" fill="#000000">45</tspan></text></g><g transform="translate(0, 6.161)"><rect fill="none" stroke="none" width="22.911" height="24.414"/><text x="0" y="12.243" xml:space="preserve"><tspan x="22.911" dy="0" text-anchor="end" font-size="13.333" font-family="Aptos, Carlito, sans-serif" fill="#000000">50</tspan></text></g><g transform="translate(35.268, 391.22)"><rect fill="none" stroke="none" width="160.85" height="24.414"/><text x="0" y="12.243" xml:space="preserve"><tspan x="80.425" dy="0" text-anchor="middle" font-size="13.333" font-family="Aptos, Carlito, sans-serif" fill="#000000">Q1</tspan></text></g><g transform="translate(196.118, 391.22)"><rect fill="none" stroke="none" width="160.85" height="24.414"/><text x="0" y="12.243" xml:space="preserve"><tspan x="80.425" dy="0" text-anchor="middle" font-size="13.333" font-family="Aptos, Carlito, sans-serif" fill="#000000">Q2</tspan></text></g><g transform="translate(356.967, 391.22)"><rect fill="none" stroke="none" width="160.85" height="24.414"/><text x="0" y="12.243" xml:space="preserve"><tspan x="80.425" dy="0" text-anchor="middle" font-size="13.333" font-family="Aptos, Carlito, sans-serif" fill="#000000">Q3</tspan></text></g><g transform="translate(517.817, 391.22)"><rect fill="none" stroke="none" width="160.85" height="24.414"/><text x="0" y="12.243" xml:space="preserve"><tspan x="80.425" dy="0" text-anchor="middle" font-size="13.333" font-family="Aptos, Carlito, sans-serif" fill="#000000">Q4</tspan></text></g><g transform="translate(303.613, 424.283)"><rect fill="#4472c4" stroke="none" width="7.32" height="7.32"/></g><g transform="translate(314.093, 419.3)"><rect fill="none" stroke="none" width="41.973" height="24.414"/><text x="0" y="12.243" xml:space="preserve"><tspan x="0" dy="0" text-anchor="start" font-size="13.333" font-family="Aptos, Carlito, sans-serif" fill="#000000">Base</tspan></text></g><g transform="translate(352.857, 424.283)"><rect fill="#ed7d31" stroke="none" width="7.32" height="7.32"/></g><g transform="translate(363.337, 419.3)"><rect fill="none" stroke="none" width="44.876" height="24.414"/><text x="0" y="12.243" xml:space="preserve"><tspan x="0" dy="0" text-anchor="start" font-size="13.333" font-family="Aptos, Carlito, sans-serif" fill="#000000">Uplift</tspan></text></g></g></svg>