<svg xmlns="http://www.w3.org/2000/svg" xmlns:xlink="http://www.w3.org/1999/xlink" viewBox="0 0 960 540" width="960" height="540"><rect width="960" height="540" fill="#ffffff"/><g role="img" aria-label="Caption" data-pptx-id="265.19" data-pptx-path="0" transform="translate(48, 18.667)"><rect fill="none" stroke="none" width="864" height="29.333"/><text x="0" y="13.174" xml:space="preserve"><tspan x="0" dy="0" text-anchor="start" font-size="13.333" font-family="Arial, Arimo, sans-serif" fill="#334155">10  radarChart - six spokes, two series</tspan></text></g><g role="img" aria-label="radarChart" data-pptx-id="265.109" data-pptx-path="1" transform="translate(48, 61.333) scale(1, 1) translate(0, 0)"><g transform="translate(249.386, 187.77)"><path fill="none" stroke-width="0.667" stroke="#000000" d="M 12.9605 0.0000 L 25.9209 7.4827 L 25.9209 22.4482 L 12.9605 29.9309 L 0.0000 22.4482 L 0.0000 7.4827 L 12.9605 0.0000" transform="scale(1.333333333, 1.333333333)"/></g><g transform="translate(232.105, 167.816)"><path fill="none" stroke-width="0.667" stroke="#000000" d="M 25.9209 0.0000 L 51.8418 14.9655 L 51.8418 44.8964 L 25.9209 59.8618 L 0.0000 44.8964 L 0.0000 14.9655 L 25.9209 0.0000" transform="scale(1.333333333, 1.333333333)"/></g><g transform="translate(214.825, 147.862)"><path fill="none" stroke-width="0.667" stroke="#000000" d="M 38.8814 0.0000 L 77.7628 22.4482 L 77.7628 67.3445 L 38.8814 89.7927 L 0.0000 67.3445 L 0.0000 22.4482 L 38.8814 0.0000" transform="scale(1.333333333, 1.333333333)"/></g><g transform="translate(197.544, 127.908)"><path fill="none" stroke-width="0.667" stroke="#000000" d="M 51.8418 0.0000 L 103.6837 29.9309 L 103.6837 89.7927 L 51.8418 119.7236 L 0.0000 89.7927 L 0.0000 29.9309 L 51.8418 0.0000" transform="scale(1.333333333, 1.333333333)"/></g><g transform="translate(180.264, 107.954)"><path fill="none" stroke-width="0.667" stroke="#000000" d="M 64.8023 0.0000 L 129.6046 37.4136 L 129.6046 112.2409 L 64.8023 149.6545 L 0.0000 112.2409 L 0.0000 37.4136 L 64.8023 0.0000" transform="scale(1.333333333, 1.333333333)"/></g><g transform="translate(162.983, 88)"><path fill="none" stroke-width="0.667" stroke="#000000" d="M 77.7628 0.0000 L 155.5255 44.8964 L 155.5255 134.6891 L 77.7628 179.5854 L 0.0000 134.6891 L 0.0000 44.8964 L 77.7628 0.0000" transform="scale(1.333333333, 1.333333333)"/></g><g transform="translate(145.702, 68.046)"><path fill="none" stroke-width="0.667" stroke="#000000" d="M 90.7232 0.0000 L 181.4465 52.3791 L 181.4465 157.1372 L 90.7232 209.5163 L 0.0000 157.1372 L 0.0000 52.3791 L 90.7232 0.0000" transform="scale(1.333333333, 1.333333333)"/></g><g transform="translate(128.422, 48.092)"><path fill="none" stroke-width="0.667" stroke="#000000" d="M 103.6837 0.0000 L 207.3674 59.8618 L 207.3674 179.5854 L 103.6837 239.4472 L 0.0000 179.5854 L 0.0000 59.8618 L 103.6837 0.0000" transform="scale(1.333333333, 1.333333333)"/></g><g transform="translate(111.141, 28.139)"><path fill="none" stroke-width="0.667" stroke="#000000" d="M 116.6442 0.0000 L 233.2883 67.3445 L 233.2883 202.0336 L 116.6442 269.3781 L 0.0000 202.0336 L 0.0000 67.3445 L 116.6442 0.0000" transform="scale(1.333333333, 1.333333333)"/></g><g transform="translate(145.702, 48.092)"><path fill="none" stroke-width="2" stroke="#4472c4" stroke-linecap="round" d="M 90.7232 0.0000 L 162.0058 78.5686 L 207.3674 187.0681 L 90.7232 216.9990 L 32.4012 153.3959 L 0.0000 67.3445 L 90.7232 0.0000" transform="scale(1.333333333, 1.333333333)"/></g><g transform="translate(263.333, 44.759)"><ellipse fill="#4472c4" stroke-width="0.667" stroke="#4472c4" cx="3.333" cy="3.333" rx="3.333" ry="3.333"/></g><g transform="translate(358.377, 149.517)"><ellipse fill="#4472c4" stroke-width="0.667" stroke="#4472c4" cx="3.333" cy="3.333" rx="3.333" ry="3.333"/></g><g transform="translate(418.859, 294.183)"><ellipse fill="#4472c4" stroke-width="0.667" stroke="#4472c4" cx="3.333" cy="3.333" rx="3.333" ry="3.333"/></g><g transform="translate(263.333, 334.091)"><ellipse fill="#4472c4" stroke-width="0.667" stroke="#4472c4" cx="3.333" cy="3.333" rx="3.333" ry="3.333"/></g><g transform="translate(185.571, 249.287)"><ellipse fill="#4472c4" stroke-width="0.667" stroke="#4472c4" cx="3.333" cy="3.333" rx="3.333" ry="3.333"/></g><g transform="translate(142.369, 134.552)"><ellipse fill="#4472c4" stroke-width="0.667" stroke="#4472c4" cx="3.333" cy="3.333" rx="3.333" ry="3.333"/></g><g transform="translate(162.983, 88)"><path fill="none" stroke-width="2" stroke="#ed7d31" stroke-linecap="round" d="M 77.7628 0.0000 L 168.4860 37.4136 L 174.9662 145.9132 L 77.7628 164.6200 L 0.0000 134.6891 L 6.4802 48.6377 L 77.7628 0.0000" transform="scale(1.333333333, 1.333333333)"/></g><g transform="translate(263.333, 84.667)"><ellipse fill="#ed7d31" stroke-width="0.667" stroke="#ed7d31" cx="3.333" cy="3.333" rx="3.333" ry="3.333"/></g><g transform="translate(384.298, 134.552)"><ellipse fill="#ed7d31" stroke-width="0.667" stroke="#ed7d31" cx="3.333" cy="3.333" rx="3.333" ry="3.333"/></g><g transform="translate(392.938, 279.218)"><ellipse fill="#ed7d31" stroke-width="0.667" stroke="#ed7d31" cx="3.333" cy="3.333" rx="3.333" ry="3.333"/></g><g transform="translate(263.333, 304.16)"><ellipse fill="#ed7d31" stroke-width="0.667" stroke="#ed7d31" cx="3.333" cy="3.333" rx="3.333" ry="3.333"/></g><g transform="translate(159.65, 264.252)"><ellipse fill="#ed7d31" stroke-width="0.667" stroke="#ed7d31" cx="3.333" cy="3.333" rx="3.333" ry="3.333"/></g><g transform="translate(168.29, 149.517)"><ellipse fill="#ed7d31" stroke-width="0.667" stroke="#ed7d31" cx="3.333" cy="3.333" rx="3.333" ry="3.333"/></g><g transform="translate(231.966, 199.08)"><rect fill="none" stroke="none" width="20.456" height="24.414"/><text x="0" y="12.243" xml:space="preserve"><tspan x="20.456" dy="0" text-anchor="end" font-size="13.333" font-family="Aptos, Carlito, sans-serif" fill="#000000">0</tspan></text></g><g transform="translate(224.844, 179.127)"><rect fill="none" stroke="none" width="27.578" height="24.414"/><text x="0" y="12.243" xml:space="preserve"><tspan x="27.578" dy="0" text-anchor="end" font-size="13.333" font-family="Aptos, Carlito, sans-serif" fill="#000000">10</tspan></text></g><g transform="translate(224.844, 159.173)"><rect fill="none" stroke="none" width="27.578" height="24.414"/><text x="0" y="12.243" xml:space="preserve"><tspan x="27.578" dy="0" text-anchor="end" font-size="13.333" font-family="Aptos, Carlito, sans-serif" fill="#000000">20</tspan></text></g><g transform="translate(224.844, 139.219)"><rect fill="none" stroke="none" width="27.578" height="24.414"/><text x="0" y="12.243" xml:space="preserve"><tspan x="27.578" dy="0" text-anchor="end" font-size="13.333" font-family="Aptos, Carlito, sans-serif" fill="#000000">30</tspan></text></g><g transform="translate(224.844, 119.265)"><rect fill="none" stroke="none" width="27.578" height="24.414"/><text x="0" y="12.243" xml:space="preserve"><tspan x="27.578" dy="0" text-anchor="end" font-size="13.333" font-family="Aptos, Carlito, sans-serif" fill="#000000">40</tspan></text></g><g transform="translate(224.844, 99.311)"><rect fill="none" stroke="none" width="27.578" height="24.414"/><text x="0" y="12.243" xml:space="preserve"><tspan x="27.578" dy="0" text-anchor="end" font-size="13.333" font-family="Aptos, Carlito, sans-serif" fill="#000000">50</tspan></text></g><g transform="translate(224.844, 79.357)"><rect fill="none" stroke="none" width="27.578" height="24.414"/><text x="0" y="12.243" xml:space="preserve"><tspan x="27.578" dy="0" text-anchor="end" font-size="13.333" font-family="Aptos, Carlito, sans-serif" fill="#000000">60</tspan></text></g><g transform="translate(224.844, 59.403)"><rect fill="none" stroke="none" width="27.578" height="24.414"/><text x="0" y="12.243" xml:space="preserve"><tspan x="27.578" dy="0" text-anchor="end" font-size="13.333" font-family="Aptos, Carlito, sans-serif" fill="#000000">70</tspan></text></g><g transform="translate(224.844, 39.449)"><rect fill="none" stroke="none" width="27.578" height="24.414"/><text x="0" y="12.243" xml:space="preserve"><tspan x="27.578" dy="0" text-anchor="end" font-size="13.333" font-family="Aptos, Carlito, sans-serif" fill="#000000">80</tspan></text></g><g transform="translate(224.844, 19.495)"><rect fill="none" stroke="none" width="27.578" height="24.414"/><text x="0" y="12.243" xml:space="preserve"><tspan x="27.578" dy="0" text-anchor="end" font-size="13.333" font-family="Aptos, Carlito, sans-serif" fill="#000000">90</tspan></text></g><g transform="translate(241.725, 8.339)"><rect fill="none" stroke="none" width="49.883" height="24.414"/><text x="0" y="12.243" xml:space="preserve"><tspan x="24.941" dy="0" text-anchor="middle" font-size="13.333" font-family="Aptos, Carlito, sans-serif" fill="#000000">Speed</tspan></text></g><g transform="translate(418.816, 100.031)"><rect fill="none" stroke="none" width="40.71" height="24.414"/><text x="0" y="12.243" xml:space="preserve"><tspan x="20.355" dy="0" text-anchor="middle" font-size="13.333" font-family="Aptos, Carlito, sans-serif" fill="#000000">Cost</tspan></text></g><g transform="translate(418.816, 299.693)"><rect fill="none" stroke="none" width="54.622" height="24.414"/><text x="0" y="12.243" xml:space="preserve"><tspan x="27.311" dy="0" text-anchor="middle" font-size="13.333" font-family="Aptos, Carlito, sans-serif" fill="#000000">Quality</tspan></text></g><g transform="translate(236.96, 391.385)"><rect fill="none" stroke="none" width="59.414" height="24.414"/><text x="0" y="12.243" xml:space="preserve"><tspan x="29.707" dy="0" text-anchor="middle" font-size="13.333" font-family="Aptos, Carlito, sans-serif" fill="#000000">Support</tspan></text></g><g transform="translate(64.647, 299.693)"><rect fill="none" stroke="none" width="49.87" height="24.414"/><text x="0" y="12.243" xml:space="preserve"><tspan x="24.935" dy="0" text-anchor="middle" font-size="13.333" font-family="Aptos, Carlito, sans-serif" fill="#000000">Reach</tspan></text></g><g transform="translate(76.952, 100.031)"><rect fill="none" stroke="none" width="37.565" height="24.414"/><text x="0" y="12.243" xml:space="preserve"><tspan x="18.783" dy="0" text-anchor="middle" font-size="13.333" font-family="Aptos, Carlito, sans-serif" fill="#000000">Risk</tspan></text></g><g transform="translate(182.049, 427.187)"><line stroke-width="2" stroke="#4472c4" stroke-linecap="round" fill="none" x1="0" y1="0" x2="25.6" y2="0"/></g><g transform="translate(191.516, 423.853)"><ellipse fill="#4472c4" stroke-width="0.667" stroke="#4472c4" cx="3.333" cy="3.333" rx="3.333" ry="3.333"/></g><g transform="translate(210.349, 418.543)"><rect fill="none" stroke="none" width="64.03" height="24.414"/><text x="0" y="12.243" xml:space="preserve"><tspan x="0" dy="0" text-anchor="start" font-size="13.333" font-family="Aptos, Carlito, sans-serif" fill="#000000">This year</tspan></text></g><g transform="translate(275.848, 427.187)"><line stroke-width="2" stroke="#ed7d31" stroke-linecap="round" fill="none" x1="0" y1="0" x2="25.6" y2="0"/></g><g transform="translate(285.315, 423.853)"><ellipse fill="#ed7d31" stroke-width="0.667" stroke="#ed7d31" cx="3.333" cy="3.333" rx="3.333" ry="3.333"/></g><g transform="translate(304.148, 418.543)"><rect fill="none" stroke="none" width="65.169" height="24.414"/><text x="0" y="12.243" xml:space="preserve"><tspan x="0" dy="0" text-anchor="start" font-size="13.333" font-family="Aptos, Carlito, sans-serif" fill="#000000">Last year</tspan></text></g></g></svg>