<svg xmlns="http://www.w3.org/2000/svg" xmlns:xlink="http://www.w3.org/1999/xlink" viewBox="0 0 960 540" width="960" height="540"><rect width="960" height="540" fill="#ffffff"/><g role="img" aria-label="Caption" data-pptx-id="260.14" data-pptx-path="0" transform="translate(48, 18.667)"><rect fill="none" stroke="none" width="864" height="29.333"/><text x="0" y="13.174" xml:space="preserve"><tspan x="0" dy="0" text-anchor="start" font-size="13.333" font-family="Arial, Arimo, sans-serif" fill="#334155">5  scatterChart - two value axes, no category axis</tspan></text></g><g role="img" aria-label="scatterChart" data-pptx-id="260.104" data-pptx-path="1" transform="translate(48, 61.333) scale(1, 1) translate(0, 0)"><g transform="translate(28.146, 370.277)"><line stroke-width="0.667" stroke="#000000" fill="none" x1="0" y1="0" x2="547.7" y2="0"/></g><g transform="translate(28.146, 325.843)"><line stroke-width="0.667" stroke="#000000" fill="none" x1="0" y1="0" x2="547.7" y2="0"/></g><g transform="translate(28.146, 281.409)"><line stroke-width="0.667" stroke="#000000" fill="none" x1="0" y1="0" x2="547.7" y2="0"/></g><g transform="translate(28.146, 236.975)"><line stroke-width="0.667" stroke="#000000" fill="none" x1="0" y1="0" x2="547.7" y2="0"/></g><g transform="translate(28.146, 192.541)"><line stroke-width="0.667" stroke="#000000" fill="none" x1="0" y1="0" x2="547.7" y2="0"/></g><g transform="translate(28.146, 148.107)"><line stroke-width="0.667" stroke="#000000" fill="none" x1="0" y1="0" x2="547.7" y2="0"/></g><g transform="translate(28.146, 103.673)"><line stroke-width="0.667" stroke="#000000" fill="none" x1="0" y1="0" x2="547.7" y2="0"/></g><g transform="translate(28.146, 59.239)"><line stroke-width="0.667" stroke="#000000" fill="none" x1="0" y1="0" x2="547.7" y2="0"/></g><g transform="translate(28.146, 14.805)"><line stroke-width="0.667" stroke="#000000" fill="none" x1="0" y1="0" x2="547.7" y2="0"/></g><g transform="translate(101.172, 37.022)"><path fill="none" stroke-width="2" stroke="#4472c4" stroke-linecap="round" d="M 0.0000 169.9602 L 54.7700 119.9719 L 86.7191 146.6323 L 159.7458 56.6534 L 214.5157 76.6487 L 273.8499 0.0000" transform="scale(1.333333333, 1.333333333)"/></g><g transform="translate(97.172, 259.635)"><ellipse fill="#4472c4" stroke-width="0.667" stroke="#4472c4" cx="4" cy="4" rx="4" ry="4"/></g><g transform="translate(170.199, 192.984)"><ellipse fill="#4472c4" stroke-width="0.667" stroke="#4472c4" cx="4" cy="4" rx="4" ry="4"/></g><g transform="translate(212.798, 228.531)"><ellipse fill="#4472c4" stroke-width="0.667" stroke="#4472c4" cx="4" cy="4" rx="4" ry="4"/></g><g transform="translate(310.167, 108.56)"><ellipse fill="#4472c4" stroke-width="0.667" stroke="#4472c4" cx="4" cy="4" rx="4" ry="4"/></g><g transform="translate(383.193, 135.22)"><ellipse fill="#4472c4" stroke-width="0.667" stroke="#4472c4" cx="4" cy="4" rx="4" ry="4"/></g><g transform="translate(462.305, 33.022)"><ellipse fill="#4472c4" stroke-width="0.667" stroke="#4472c4" cx="4" cy="4" rx="4" ry="4"/></g><g transform="translate(89.001, 165.88)"><path fill="none" stroke-width="2" stroke="#ed7d31" stroke-linecap="round" d="M 0.0000 123.3044 L 86.7191 99.9766 L 127.7966 56.6534 L 187.1307 46.6557 L 246.4649 0.0000 L 310.3632 16.6628" transform="scale(1.333333333, 1.333333333)"/></g><g transform="translate(85.001, 326.286)"><rect fill="#ed7d31" stroke-width="0.667" stroke="#ed7d31" width="8" height="8"/></g><g transform="translate(200.627, 295.182)"><rect fill="#ed7d31" stroke-width="0.667" stroke="#ed7d31" width="8" height="8"/></g><g transform="translate(255.397, 237.418)"><rect fill="#ed7d31" stroke-width="0.667" stroke="#ed7d31" width="8" height="8"/></g><g transform="translate(334.509, 224.088)"><rect fill="#ed7d31" stroke-width="0.667" stroke="#ed7d31" width="8" height="8"/></g><g transform="translate(413.621, 161.88)"><rect fill="#ed7d31" stroke-width="0.667" stroke="#ed7d31" width="8" height="8"/></g><g transform="translate(498.819, 184.097)"><rect fill="#ed7d31" stroke-width="0.667" stroke="#ed7d31" width="8" height="8"/></g><g transform="translate(28.146, 14.805)"><line stroke-width="0.667" stroke="#000000" fill="none" x1="0" y1="0" x2="0" y2="399.906"/></g><g transform="translate(28.146, 414.711)"><line stroke-width="0.667" stroke="#000000" fill="none" x1="0" y1="0" x2="547.7" y2="0"/></g><g transform="translate(0, 406.067)"><rect fill="none" stroke="none" width="15.789" height="24.414"/><text x="0" y="12.243" xml:space="preserve"><tspan x="15.789" dy="0" text-anchor="end" font-size="13.333" font-family="Aptos, Carlito, sans-serif" fill="#000000">0</tspan></text></g><g transform="translate(0, 361.633)"><rect fill="none" stroke="none" width="15.789" height="24.414"/><text x="0" y="12.243" xml:space="preserve"><tspan x="15.789" dy="0" text-anchor="end" font-size="13.333" font-family="Aptos, Carlito, sans-serif" fill="#000000">1</tspan></text></g><g transform="translate(0, 317.199)"><rect fill="none" stroke="none" width="15.789" height="24.414"/><text x="0" y="12.243" xml:space="preserve"><tspan x="15.789" dy="0" text-anchor="end" font-size="13.333" font-family="Aptos, Carlito, sans-serif" fill="#000000">2</tspan></text></g><g transform="translate(0, 272.765)"><rect fill="none" stroke="none" width="15.789" height="24.414"/><text x="0" y="12.243" xml:space="preserve"><tspan x="15.789" dy="0" text-anchor="end" font-size="13.333" font-family="Aptos, Carlito, sans-serif" fill="#000000">3</tspan></text></g><g transform="translate(0, 228.331)"><rect fill="none" stroke="none" width="15.789" height="24.414"/><text x="0" y="12.243" xml:space="preserve"><tspan x="15.789" dy="0" text-anchor="end" font-size="13.333" font-family="Aptos, Carlito, sans-serif" fill="#000000">4</tspan></text></g><g transform="translate(0, 183.897)"><rect fill="none" stroke="none" width="15.789" height="24.414"/><text x="0" y="12.243" xml:space="preserve"><tspan x="15.789" dy="0" text-anchor="end" font-size="13.333" font-family="Aptos, Carlito, sans-serif" fill="#000000">5</tspan></text></g><g transform="translate(0, 139.463)"><rect fill="none" stroke="none" width="15.789" height="24.414"/><text x="0" y="12.243" xml:space="preserve"><tspan x="15.789" dy="0" text-anchor="end" font-size="13.333" font-family="Aptos, Carlito, sans-serif" fill="#000000">6</tspan></text></g><g transform="translate(0, 95.029)"><rect fill="none" stroke="none" width="15.789" height="24.414"/><text x="0" y="12.243" xml:space="preserve"><tspan x="15.789" dy="0" text-anchor="end" font-size="13.333" font-family="Aptos, Carlito, sans-serif" fill="#000000">7</tspan></text></g><g transform="translate(0, 50.595)"><rect fill="none" stroke="none" width="15.789" height="24.414"/><text x="0" y="12.243" xml:space="preserve"><tspan x="15.789" dy="0" text-anchor="end" font-size="13.333" font-family="Aptos, Carlito, sans-serif" fill="#000000">8</tspan></text></g><g transform="translate(0, 6.161)"><rect fill="none" stroke="none" width="15.789" height="24.414"/><text x="0" y="12.243" xml:space="preserve"><tspan x="15.789" dy="0" text-anchor="end" font-size="13.333" font-family="Aptos, Carlito, sans-serif" fill="#000000">9</tspan></text></g><g transform="translate(17.918, 423.333)"><rect fill="none" stroke="none" width="20.456" height="24.414"/><text x="0" y="12.243" xml:space="preserve"><tspan x="10.228" dy="0" text-anchor="middle" font-size="13.333" font-family="Aptos, Carlito, sans-serif" fill="#000000">0</tspan></text></g><g transform="translate(78.773, 423.333)"><rect fill="none" stroke="none" width="20.456" height="24.414"/><text x="0" y="12.243" xml:space="preserve"><tspan x="10.228" dy="0" text-anchor="middle" font-size="13.333" font-family="Aptos, Carlito, sans-serif" fill="#000000">1</tspan></text></g><g transform="translate(139.629, 423.333)"><rect fill="none" stroke="none" width="20.456" height="24.414"/><text x="0" y="12.243" xml:space="preserve"><tspan x="10.228" dy="0" text-anchor="middle" font-size="13.333" font-family="Aptos, Carlito, sans-serif" fill="#000000">2</tspan></text></g><g transform="translate(200.484, 423.333)"><rect fill="none" stroke="none" width="20.456" height="24.414"/><text x="0" y="12.243" xml:space="preserve"><tspan x="10.228" dy="0" text-anchor="middle" font-size="13.333" font-family="Aptos, Carlito, sans-serif" fill="#000000">3</tspan></text></g><g transform="translate(261.34, 423.333)"><rect fill="none" stroke="none" width="20.456" height="24.414"/><text x="0" y="12.243" xml:space="preserve"><tspan x="10.228" dy="0" text-anchor="middle" font-size="13.333" font-family="Aptos, Carlito, sans-serif" fill="#000000">4</tspan></text></g><g transform="translate(322.195, 423.333)"><rect fill="none" stroke="none" width="20.456" height="24.414"/><text x="0" y="12.243" xml:space="preserve"><tspan x="10.228" dy="0" text-anchor="middle" font-size="13.333" font-family="Aptos, Carlito, sans-serif" fill="#000000">5</tspan></text></g><g transform="translate(383.051, 423.333)"><rect fill="none" stroke="none" width="20.456" height="24.414"/><text x="0" y="12.243" xml:space="preserve"><tspan x="10.228" dy="0" text-anchor="middle" font-size="13.333" font-family="Aptos, Carlito, sans-serif" fill="#000000">6</tspan></text></g><g transform="translate(443.906, 423.333)"><rect fill="none" stroke="none" width="20.456" height="24.414"/><text x="0" y="12.243" xml:space="preserve"><tspan x="10.228" dy="0" text-anchor="middle" font-size="13.333" font-family="Aptos, Carlito, sans-serif" fill="#000000">7</tspan></text></g><g transform="translate(504.762, 423.333)"><rect fill="none" stroke="none" width="20.456" height="24.414"/><text x="0" y="12.243" xml:space="preserve"><tspan x="10.228" dy="0" text-anchor="middle" font-size="13.333" font-family="Aptos, Carlito, sans-serif" fill="#000000">8</tspan></text></g><g transform="translate(565.617, 423.333)"><rect fill="none" stroke="none" width="20.456" height="24.414"/><text x="0" y="12.243" xml:space="preserve"><tspan x="10.228" dy="0" text-anchor="middle" font-size="13.333" font-family="Aptos, Carlito, sans-serif" fill="#000000">9</tspan></text></g><g transform="translate(597.179, 211.943)"><line stroke-width="2" stroke="#4472c4" stroke-linecap="round" fill="none" x1="0" y1="0" x2="25.6" y2="0"/></g><g transform="translate(605.979, 207.943)"><ellipse fill="#4472c4" stroke-width="0.667" stroke="#4472c4" cx="4" cy="4" rx="4" ry="4"/></g><g transform="translate(625.479, 203.3)"><rect fill="none" stroke="none" width="59.188" height="24.414"/><text x="0" y="12.243" xml:space="preserve"><tspan x="0" dy="0" text-anchor="start" font-size="13.333" font-family="Aptos, Carlito, sans-serif" fill="#000000">Cohort A</tspan></text></g><g transform="translate(597.179, 236.057)"><line stroke-width="2" stroke="#ed7d31" stroke-linecap="round" fill="none" x1="0" y1="0" x2="25.6" y2="0"/></g><g transform="translate(605.979, 232.057)"><rect fill="#ed7d31" stroke-width="0.667" stroke="#ed7d31" width="8" height="8"/></g><g transform="translate(625.479, 227.413)"><rect fill="none" stroke="none" width="59.188" height="24.414"/><text x="0" y="12.243" xml:space="preserve"><tspan x="0" dy="0" text-anchor="start" font-size="13.333" font-family="Aptos, Carlito, sans-serif" fill="#000000">Cohort B</tspan></text></g></g></svg>