<svg xmlns="http://www.w3.org/2000/svg" xmlns:xlink="http://www.w3.org/1999/xlink" viewBox="0 0 960 540" width="960" height="540"><rect width="960" height="540" fill="#ffffff"/><g role="img" aria-label="Caption" data-pptx-id="259.13" data-pptx-path="0" transform="translate(48, 18.667)"><rect fill="none" stroke="none" width="864" height="29.333"/><text x="0" y="13.174" xml:space="preserve"><tspan x="0" dy="0" text-anchor="start" font-size="13.333" font-family="Arial, Arimo, sans-serif" fill="#334155">4  areaChart - stacked, no crossBetween stated, legend at the right</tspan></text></g><g role="img" aria-label="areaChart" data-pptx-id="259.103" data-pptx-path="1" transform="translate(48, 61.333) scale(1, 1) translate(0, 0)"><g transform="translate(0, 6.981)"><rect fill="none" stroke="none" width="864" height="31.281"/><text x="0" y="18.444" xml:space="preserve"><tspan x="432" dy="0" text-anchor="middle" font-size="18.667" font-family="Arial, Arimo, sans-serif">Revenue mix by quarter</tspan></text></g><g transform="translate(42.39, 377.8)"><line stroke-width="0.667" stroke="#000000" fill="none" x1="0" y1="0" x2="716.167" y2="0"/></g><g transform="translate(42.39, 340.89)"><line stroke-width="0.667" stroke="#000000" fill="none" x1="0" y1="0" x2="716.167" y2="0"/></g><g transform="translate(42.39, 303.979)"><line stroke-width="0.667" stroke="#000000" fill="none" x1="0" y1="0" x2="716.167" y2="0"/></g><g transform="translate(42.39, 267.068)"><line stroke-width="0.667" stroke="#000000" fill="none" x1="0" y1="0" x2="716.167" y2="0"/></g><g transform="translate(42.39, 230.158)"><line stroke-width="0.667" stroke="#000000" fill="none" x1="0" y1="0" x2="716.167" y2="0"/></g><g transform="translate(42.39, 193.247)"><line stroke-width="0.667" stroke="#000000" fill="none" x1="0" y1="0" x2="716.167" y2="0"/></g><g transform="translate(42.39, 156.336)"><line stroke-width="0.667" stroke="#000000" fill="none" x1="0" y1="0" x2="716.167" y2="0"/></g><g transform="translate(42.39, 119.426)"><line stroke-width="0.667" stroke="#000000" fill="none" x1="0" y1="0" x2="716.167" y2="0"/></g><g transform="translate(42.39, 82.515)"><line stroke-width="0.667" stroke="#000000" fill="none" x1="0" y1="0" x2="716.167" y2="0"/></g><g transform="translate(42.39, 45.604)"><line stroke-width="0.667" stroke="#000000" fill="none" x1="0" y1="0" x2="716.167" y2="0"/></g><g transform="translate(42.39, 248.613)"><path fill="#4472c4" stroke="none" d="M 0.0000 41.5245 L 179.0417 30.4513 L 358.0834 16.6098 L 537.1252 0.0000 L 537.1252 124.5735 L 358.0834 124.5735 L 179.0417 124.5735 L 0.0000 124.5735 Z" transform="scale(1.333333333, 1.333333333)"/></g><g transform="translate(42.39, 148.954)"><path fill="#ed7d31" stroke="none" d="M 0.0000 66.4392 L 179.0417 44.2928 L 358.0834 33.2196 L 537.1252 0.0000 L 537.1252 74.7441 L 358.0834 91.3539 L 179.0417 105.1954 L 0.0000 116.2686 Z" transform="scale(1.333333333, 1.333333333)"/></g><g transform="translate(42.39, 97.279)"><path fill="#a5a5a5" stroke="none" d="M 0.0000 80.2807 L 179.0417 52.5977 L 358.0834 30.4513 L 537.1252 0.0000 L 537.1252 38.7562 L 358.0834 71.9758 L 179.0417 83.0490 L 0.0000 105.1954 Z" transform="scale(1.333333333, 1.333333333)"/></g><g transform="translate(42.39, 45.604)"><line stroke-width="0.667" stroke="#000000" fill="none" x1="0" y1="0" x2="0" y2="369.107"/></g><g transform="translate(42.39, 414.711)"><line stroke-width="0.667" stroke="#000000" fill="none" x1="0" y1="0" x2="716.167" y2="0"/></g><g transform="translate(0, 406.067)"><rect fill="none" stroke="none" width="30.034" height="24.414"/><text x="0" y="12.243" xml:space="preserve"><tspan x="30.034" dy="0" text-anchor="end" font-size="13.333" font-family="Aptos, Carlito, sans-serif" fill="#000000">0</tspan></text></g><g transform="translate(0, 369.157)"><rect fill="none" stroke="none" width="30.034" height="24.414"/><text x="0" y="12.243" xml:space="preserve"><tspan x="30.034" dy="0" text-anchor="end" font-size="13.333" font-family="Aptos, Carlito, sans-serif" fill="#000000">10</tspan></text></g><g transform="translate(0, 332.246)"><rect fill="none" stroke="none" width="30.034" height="24.414"/><text x="0" y="12.243" xml:space="preserve"><tspan x="30.034" dy="0" text-anchor="end" font-size="13.333" font-family="Aptos, Carlito, sans-serif" fill="#000000">20</tspan></text></g><g transform="translate(0, 295.335)"><rect fill="none" stroke="none" width="30.034" height="24.414"/><text x="0" y="12.243" xml:space="preserve"><tspan x="30.034" dy="0" text-anchor="end" font-size="13.333" font-family="Aptos, Carlito, sans-serif" fill="#000000">30</tspan></text></g><g transform="translate(0, 258.425)"><rect fill="none" stroke="none" width="30.034" height="24.414"/><text x="0" y="12.243" xml:space="preserve"><tspan x="30.034" dy="0" text-anchor="end" font-size="13.333" font-family="Aptos, Carlito, sans-serif" fill="#000000">40</tspan></text></g><g transform="translate(0, 221.514)"><rect fill="none" stroke="none" width="30.034" height="24.414"/><text x="0" y="12.243" xml:space="preserve"><tspan x="30.034" dy="0" text-anchor="end" font-size="13.333" font-family="Aptos, Carlito, sans-serif" fill="#000000">50</tspan></text></g><g transform="translate(0, 184.603)"><rect fill="none" stroke="none" width="30.034" height="24.414"/><text x="0" y="12.243" xml:space="preserve"><tspan x="30.034" dy="0" text-anchor="end" font-size="13.333" font-family="Aptos, Carlito, sans-serif" fill="#000000">60</tspan></text></g><g transform="translate(0, 147.693)"><rect fill="none" stroke="none" width="30.034" height="24.414"/><text x="0" y="12.243" xml:space="preserve"><tspan x="30.034" dy="0" text-anchor="end" font-size="13.333" font-family="Aptos, Carlito, sans-serif" fill="#000000">70</tspan></text></g><g transform="translate(0, 110.782)"><rect fill="none" stroke="none" width="30.034" height="24.414"/><text x="0" y="12.243" xml:space="preserve"><tspan x="30.034" dy="0" text-anchor="end" font-size="13.333" font-family="Aptos, Carlito, sans-serif" fill="#000000">80</tspan></text></g><g transform="translate(0, 73.871)"><rect fill="none" stroke="none" width="30.034" height="24.414"/><text x="0" y="12.243" xml:space="preserve"><tspan x="30.034" dy="0" text-anchor="end" font-size="13.333" font-family="Aptos, Carlito, sans-serif" fill="#000000">90</tspan></text></g><g transform="translate(0, 36.961)"><rect fill="none" stroke="none" width="30.034" height="24.414"/><text x="0" y="12.243" xml:space="preserve"><tspan x="30.034" dy="0" text-anchor="end" font-size="13.333" font-family="Aptos, Carlito, sans-serif" fill="#000000">100</tspan></text></g><g transform="translate(27.28, 423.333)"><rect fill="none" stroke="none" width="30.221" height="24.414"/><text x="0" y="12.243" xml:space="preserve"><tspan x="15.111" dy="0" text-anchor="middle" font-size="13.333" font-family="Aptos, Carlito, sans-serif" fill="#000000">Q1</tspan></text></g><g transform="translate(266.002, 423.333)"><rect fill="none" stroke="none" width="30.221" height="24.414"/><text x="0" y="12.243" xml:space="preserve"><tspan x="15.111" dy="0" text-anchor="middle" font-size="13.333" font-family="Aptos, Carlito, sans-serif" fill="#000000">Q2</tspan></text></g><g transform="translate(504.724, 423.333)"><rect fill="none" stroke="none" width="30.221" height="24.414"/><text x="0" y="12.243" xml:space="preserve"><tspan x="15.111" dy="0" text-anchor="middle" font-size="13.333" font-family="Aptos, Carlito, sans-serif" fill="#000000">Q3</tspan></text></g><g transform="translate(743.447, 423.333)"><rect fill="none" stroke="none" width="30.221" height="24.414"/><text x="0" y="12.243" xml:space="preserve"><tspan x="15.111" dy="0" text-anchor="middle" font-size="13.333" font-family="Aptos, Carlito, sans-serif" fill="#000000">Q4</tspan></text></g><g transform="translate(779.891, 212.647)"><rect fill="#4472c4" stroke="none" width="7.32" height="7.32"/></g><g transform="translate(790.371, 207.664)"><rect fill="none" stroke="none" width="64.963" height="24.414"/><text x="0" y="12.243" xml:space="preserve"><tspan x="0" dy="0" text-anchor="start" font-size="13.333" font-family="Aptos, Carlito, sans-serif" fill="#000000">Licences</tspan></text></g><g transform="translate(779.891, 236.76)"><rect fill="#ed7d31" stroke="none" width="7.32" height="7.32"/></g><g transform="translate(790.371, 231.777)"><rect fill="none" stroke="none" width="62.077" height="24.414"/><text x="0" y="12.243" xml:space="preserve"><tspan x="0" dy="0" text-anchor="start" font-size="13.333" font-family="Aptos, Carlito, sans-serif" fill="#000000">Services</tspan></text></g><g transform="translate(779.891, 260.874)"><rect fill="#a5a5a5" stroke="none" width="7.32" height="7.32"/></g><g transform="translate(790.371, 255.89)"><rect fill="none" stroke="none" width="59.414" height="24.414"/><text x="0" y="12.243" xml:space="preserve"><tspan x="0" dy="0" text-anchor="start" font-size="13.333" font-family="Aptos, Carlito, sans-serif" fill="#000000">Support</tspan></text></g></g></svg>