<svg xmlns="http://www.w3.org/2000/svg" xmlns:xlink="http://www.w3.org/1999/xlink" viewBox="0 0 960 540" width="960" height="540"><rect width="960" height="540" fill="#ffffff"/><g role="img" aria-label="Caption" data-pptx-id="259.13" data-pptx-path="0" transform="translate(48, 18.667)"><rect fill="none" stroke="none" width="864" height="29.333"/><text x="0" y="13.174" xml:space="preserve"><tspan x="0" dy="0" text-anchor="start" font-size="13.333" font-family="Arial, Arimo, sans-serif" fill="#334155">4  areaChart - stacked, no crossBetween stated, legend at the right</tspan></text></g><g role="img" aria-label="areaChart" data-pptx-id="259.103" data-pptx-path="1" transform="translate(48, 61.333) scale(1, 1) translate(0, 0)"><g transform="translate(0, 6.981)"><rect fill="none" stroke="none" width="864" height="31.281"/><text x="0" y="18.444" xml:space="preserve"><tspan x="432" dy="0" text-anchor="middle" font-size="18.667" font-family="Arial, Arimo, sans-serif">Revenue mix by quarter</tspan></text></g><g transform="translate(42.39, 377.932)"><line stroke-width="0.667" stroke="#000000" fill="none" x1="0" y1="0" x2="716.167" y2="0"/></g><g transform="translate(42.39, 341.007)"><line stroke-width="0.667" stroke="#000000" fill="none" x1="0" y1="0" x2="716.167" y2="0"/></g><g transform="translate(42.39, 304.081)"><line stroke-width="0.667" stroke="#000000" fill="none" x1="0" y1="0" x2="716.167" y2="0"/></g><g transform="translate(42.39, 267.156)"><line stroke-width="0.667" stroke="#000000" fill="none" x1="0" y1="0" x2="716.167" y2="0"/></g><g transform="translate(42.39, 230.231)"><line stroke-width="0.667" stroke="#000000" fill="none" x1="0" y1="0" x2="716.167" y2="0"/></g><g transform="translate(42.39, 193.305)"><line stroke-width="0.667" stroke="#000000" fill="none" x1="0" y1="0" x2="716.167" y2="0"/></g><g transform="translate(42.39, 156.38)"><line stroke-width="0.667" stroke="#000000" fill="none" x1="0" y1="0" x2="716.167" y2="0"/></g><g transform="translate(42.39, 119.455)"><line stroke-width="0.667" stroke="#000000" fill="none" x1="0" y1="0" x2="716.167" y2="0"/></g><g transform="translate(42.39, 82.53)"><line stroke-width="0.667" stroke="#000000" fill="none" x1="0" y1="0" x2="716.167" y2="0"/></g><g transform="translate(42.39, 45.604)"><line stroke-width="0.667" stroke="#000000" fill="none" x1="0" y1="0" x2="716.167" y2="0"/></g><g transform="translate(42.39, 248.693)"><path fill="#4472c4" stroke="none" d="M 0.0000 41.5410 L 179.0417 30.4634 L 358.0834 16.6164 L 537.1252 0.0000 L 537.1252 124.6229 L 358.0834 124.6229 L 179.0417 124.6229 L 0.0000 124.6229 Z" transform="scale(1.333333333, 1.333333333)"/></g><g transform="translate(42.39, 148.995)"><path fill="#ed7d31" stroke="none" d="M 0.0000 66.4656 L 179.0417 44.3104 L 358.0834 33.2328 L 537.1252 0.0000 L 537.1252 74.7737 L 358.0834 91.3901 L 179.0417 105.2371 L 0.0000 116.3147 Z" transform="scale(1.333333333, 1.333333333)"/></g><g transform="translate(42.39, 97.3)"><path fill="#a5a5a5" stroke="none" d="M 0.0000 80.3125 L 179.0417 52.6186 L 358.0834 30.4634 L 537.1252 0.0000 L 537.1252 38.7716 L 358.0834 72.0044 L 179.0417 83.0819 L 0.0000 105.2371 Z" transform="scale(1.333333333, 1.333333333)"/></g><g transform="translate(42.39, 45.604)"><line stroke-width="0.667" stroke="#000000" fill="none" x1="0" y1="0" x2="0" y2="369.253"/></g><g transform="translate(42.39, 414.857)"><line stroke-width="0.667" stroke="#000000" fill="none" x1="0" y1="0" x2="716.167" y2="0"/></g><g transform="translate(0, 406.214)"><rect fill="none" stroke="none" width="30.034" height="24.414"/><text x="0" y="12.243" xml:space="preserve"><tspan x="30.034" dy="0" text-anchor="end" font-size="13.333" font-family="Aptos, Carlito, sans-serif" fill="#000000">0</tspan></text></g><g transform="translate(0, 369.288)"><rect fill="none" stroke="none" width="30.034" height="24.414"/><text x="0" y="12.243" xml:space="preserve"><tspan x="30.034" dy="0" text-anchor="end" font-size="13.333" font-family="Aptos, Carlito, sans-serif" fill="#000000">10</tspan></text></g><g transform="translate(0, 332.363)"><rect fill="none" stroke="none" width="30.034" height="24.414"/><text x="0" y="12.243" xml:space="preserve"><tspan x="30.034" dy="0" text-anchor="end" font-size="13.333" font-family="Aptos, Carlito, sans-serif" fill="#000000">20</tspan></text></g><g transform="translate(0, 295.438)"><rect fill="none" stroke="none" width="30.034" height="24.414"/><text x="0" y="12.243" xml:space="preserve"><tspan x="30.034" dy="0" text-anchor="end" font-size="13.333" font-family="Aptos, Carlito, sans-serif" fill="#000000">30</tspan></text></g><g transform="translate(0, 258.513)"><rect fill="none" stroke="none" width="30.034" height="24.414"/><text x="0" y="12.243" xml:space="preserve"><tspan x="30.034" dy="0" text-anchor="end" font-size="13.333" font-family="Aptos, Carlito, sans-serif" fill="#000000">40</tspan></text></g><g transform="translate(0, 221.587)"><rect fill="none" stroke="none" width="30.034" height="24.414"/><text x="0" y="12.243" xml:space="preserve"><tspan x="30.034" dy="0" text-anchor="end" font-size="13.333" font-family="Aptos, Carlito, sans-serif" fill="#000000">50</tspan></text></g><g transform="translate(0, 184.662)"><rect fill="none" stroke="none" width="30.034" height="24.414"/><text x="0" y="12.243" xml:space="preserve"><tspan x="30.034" dy="0" text-anchor="end" font-size="13.333" font-family="Aptos, Carlito, sans-serif" fill="#000000">60</tspan></text></g><g transform="translate(0, 147.737)"><rect fill="none" stroke="none" width="30.034" height="24.414"/><text x="0" y="12.243" xml:space="preserve"><tspan x="30.034" dy="0" text-anchor="end" font-size="13.333" font-family="Aptos, Carlito, sans-serif" fill="#000000">70</tspan></text></g><g transform="translate(0, 110.811)"><rect fill="none" stroke="none" width="30.034" height="24.414"/><text x="0" y="12.243" xml:space="preserve"><tspan x="30.034" dy="0" text-anchor="end" font-size="13.333" font-family="Aptos, Carlito, sans-serif" fill="#000000">80</tspan></text></g><g transform="translate(0, 73.886)"><rect fill="none" stroke="none" width="30.034" height="24.414"/><text x="0" y="12.243" xml:space="preserve"><tspan x="30.034" dy="0" text-anchor="end" font-size="13.333" font-family="Aptos, Carlito, sans-serif" fill="#000000">90</tspan></text></g><g transform="translate(0, 36.961)"><rect fill="none" stroke="none" width="30.034" height="24.414"/><text x="0" y="12.243" xml:space="preserve"><tspan x="30.034" dy="0" text-anchor="end" font-size="13.333" font-family="Aptos, Carlito, sans-serif" fill="#000000">100</tspan></text></g><g transform="translate(27.28, 423.333)"><rect fill="none" stroke="none" width="30.221" height="24.414"/><text x="0" y="12.243" xml:space="preserve"><tspan x="15.111" dy="0" text-anchor="middle" font-size="13.333" font-family="Aptos, Carlito, sans-serif" fill="#000000">Q1</tspan></text></g><g transform="translate(266.002, 423.333)"><rect fill="none" stroke="none" width="30.221" height="24.414"/><text x="0" y="12.243" xml:space="preserve"><tspan x="15.111" dy="0" text-anchor="middle" font-size="13.333" font-family="Aptos, Carlito, sans-serif" fill="#000000">Q2</tspan></text></g><g transform="translate(504.724, 423.333)"><rect fill="none" stroke="none" width="30.221" height="24.414"/><text x="0" y="12.243" xml:space="preserve"><tspan x="15.111" dy="0" text-anchor="middle" font-size="13.333" font-family="Aptos, Carlito, sans-serif" fill="#000000">Q3</tspan></text></g><g transform="translate(743.447, 423.333)"><rect fill="none" stroke="none" width="30.221" height="24.414"/><text x="0" y="12.243" xml:space="preserve"><tspan x="15.111" dy="0" text-anchor="middle" font-size="13.333" font-family="Aptos, Carlito, sans-serif" fill="#000000">Q4</tspan></text></g><g transform="translate(779.891, 196.227)"><rect fill="#4472c4" stroke="none" width="7.32" height="7.32"/></g><g transform="translate(790.371, 191.243)"><rect fill="none" stroke="none" width="64.963" height="24.414"/><text x="0" y="12.243" xml:space="preserve"><tspan x="0" dy="0" text-anchor="start" font-size="13.333" font-family="Aptos, Carlito, sans-serif" fill="#000000">Licences</tspan></text></g><g transform="translate(779.891, 220.34)"><rect fill="#ed7d31" stroke="none" width="7.32" height="7.32"/></g><g transform="translate(790.371, 215.357)"><rect fill="none" stroke="none" width="62.077" height="24.414"/><text x="0" y="12.243" xml:space="preserve"><tspan x="0" dy="0" text-anchor="start" font-size="13.333" font-family="Aptos, Carlito, sans-serif" fill="#000000">Services</tspan></text></g><g transform="translate(779.891, 244.453)"><rect fill="#a5a5a5" stroke="none" width="7.32" height="7.32"/></g><g transform="translate(790.371, 239.47)"><rect fill="none" stroke="none" width="59.414" height="24.414"/><text x="0" y="12.243" xml:space="preserve"><tspan x="0" dy="0" text-anchor="start" font-size="13.333" font-family="Aptos, Carlito, sans-serif" fill="#000000">Support</tspan></text></g></g></svg>