<svg xmlns="http://www.w3.org/2000/svg" xmlns:xlink="http://www.w3.org/1999/xlink" viewBox="0 0 960 540" width="960" height="540"><rect width="960" height="540" fill="#ffffff"/><g role="img" aria-label="Caption" data-pptx-id="271.25" data-pptx-path="0" transform="translate(48, 18.667)"><rect fill="none" stroke="none" width="864" height="29.333"/><text x="0" y="13.174" xml:space="preserve"><tspan x="0" dy="0" text-anchor="start" font-size="13.333" font-family="Arial, Arimo, sans-serif" fill="#334155">16  area3DChart - parses as areaChart and draws flat</tspan></text></g><g role="img" aria-label="area3DChart" data-pptx-id="271.115" data-pptx-path="1" transform="translate(48, 61.333) scale(1, 1) translate(0, 0)"><g transform="translate(35.268, 321.055)"><line stroke-width="0.667" stroke="#000000" fill="none" x1="0" y1="0" x2="643.399" y2="0"/></g><g transform="translate(35.268, 259.805)"><line stroke-width="0.667" stroke="#000000" fill="none" x1="0" y1="0" x2="643.399" y2="0"/></g><g transform="translate(35.268, 198.555)"><line stroke-width="0.667" stroke="#000000" fill="none" x1="0" y1="0" x2="643.399" y2="0"/></g><g transform="translate(35.268, 137.305)"><line stroke-width="0.667" stroke="#000000" fill="none" x1="0" y1="0" x2="643.399" y2="0"/></g><g transform="translate(35.268, 76.055)"><line stroke-width="0.667" stroke="#000000" fill="none" x1="0" y1="0" x2="643.399" y2="0"/></g><g transform="translate(35.268, 14.805)"><line stroke-width="0.667" stroke="#000000" fill="none" x1="0" y1="0" x2="643.399" y2="0"/></g><g transform="translate(115.693, 167.93)"><path fill="#4472c4" stroke="none" d="M 0.0000 59.7188 L 120.6373 41.3438 L 241.2745 22.9688 L 361.9118 0.0000 L 361.9118 160.7815 L 241.2745 160.7815 L 120.6373 160.7815 L 0.0000 160.7815 Z" transform="scale(1.333333333, 1.333333333)"/></g><g transform="translate(115.693, 76.055)"><path fill="#ed7d31" stroke="none" d="M 0.0000 91.8751 L 120.6373 55.1251 L 241.2745 50.5313 L 361.9118 0.0000 L 361.9118 68.9063 L 241.2745 91.8751 L 120.6373 110.2502 L 0.0000 128.6252 Z" transform="scale(1.333333333, 1.333333333)"/></g><g transform="translate(35.268, 14.805)"><line stroke-width="0.667" stroke="#000000" fill="none" x1="0" y1="0" x2="0" y2="367.501"/></g><g transform="translate(35.268, 382.305)"><line stroke-width="0.667" stroke="#000000" fill="none" x1="0" y1="0" x2="643.399" y2="0"/></g><g transform="translate(0, 373.662)"><rect fill="none" stroke="none" width="22.911" height="24.414"/><text x="0" y="12.243" xml:space="preserve"><tspan x="22.911" dy="0" text-anchor="end" font-size="13.333" font-family="Aptos, Carlito, sans-serif" fill="#000000">0</tspan></text></g><g transform="translate(0, 312.412)"><rect fill="none" stroke="none" width="22.911" height="24.414"/><text x="0" y="12.243" xml:space="preserve"><tspan x="22.911" dy="0" text-anchor="end" font-size="13.333" font-family="Aptos, Carlito, sans-serif" fill="#000000">10</tspan></text></g><g transform="translate(0, 251.162)"><rect fill="none" stroke="none" width="22.911" height="24.414"/><text x="0" y="12.243" xml:space="preserve"><tspan x="22.911" dy="0" text-anchor="end" font-size="13.333" font-family="Aptos, Carlito, sans-serif" fill="#000000">20</tspan></text></g><g transform="translate(0, 189.911)"><rect fill="none" stroke="none" width="22.911" height="24.414"/><text x="0" y="12.243" xml:space="preserve"><tspan x="22.911" dy="0" text-anchor="end" font-size="13.333" font-family="Aptos, Carlito, sans-serif" fill="#000000">30</tspan></text></g><g transform="translate(0, 128.661)"><rect fill="none" stroke="none" width="22.911" height="24.414"/><text x="0" y="12.243" xml:space="preserve"><tspan x="22.911" dy="0" text-anchor="end" font-size="13.333" font-family="Aptos, Carlito, sans-serif" fill="#000000">40</tspan></text></g><g transform="translate(0, 67.411)"><rect fill="none" stroke="none" width="22.911" height="24.414"/><text x="0" y="12.243" xml:space="preserve"><tspan x="22.911" dy="0" text-anchor="end" font-size="13.333" font-family="Aptos, Carlito, sans-serif" fill="#000000">50</tspan></text></g><g transform="translate(0, 6.161)"><rect fill="none" stroke="none" width="22.911" height="24.414"/><text x="0" y="12.243" xml:space="preserve"><tspan x="22.911" dy="0" text-anchor="end" font-size="13.333" font-family="Aptos, Carlito, sans-serif" fill="#000000">60</tspan></text></g><g transform="translate(35.268, 390.781)"><rect fill="none" stroke="none" width="160.85" height="24.414"/><text x="0" y="12.243" xml:space="preserve"><tspan x="80.425" dy="0" text-anchor="middle" font-size="13.333" font-family="Aptos, Carlito, sans-serif" fill="#000000">Q1</tspan></text></g><g transform="translate(196.118, 390.781)"><rect fill="none" stroke="none" width="160.85" height="24.414"/><text x="0" y="12.243" xml:space="preserve"><tspan x="80.425" dy="0" text-anchor="middle" font-size="13.333" font-family="Aptos, Carlito, sans-serif" fill="#000000">Q2</tspan></text></g><g transform="translate(356.967, 390.781)"><rect fill="none" stroke="none" width="160.85" height="24.414"/><text x="0" y="12.243" xml:space="preserve"><tspan x="80.425" dy="0" text-anchor="middle" font-size="13.333" font-family="Aptos, Carlito, sans-serif" fill="#000000">Q3</tspan></text></g><g transform="translate(517.817, 390.781)"><rect fill="none" stroke="none" width="160.85" height="24.414"/><text x="0" y="12.243" xml:space="preserve"><tspan x="80.425" dy="0" text-anchor="middle" font-size="13.333" font-family="Aptos, Carlito, sans-serif" fill="#000000">Q4</tspan></text></g><g transform="translate(303.613, 423.527)"><rect fill="#4472c4" stroke="none" width="7.32" height="7.32"/></g><g transform="translate(314.093, 418.543)"><rect fill="none" stroke="none" width="41.973" height="24.414"/><text x="0" y="12.243" xml:space="preserve"><tspan x="0" dy="0" text-anchor="start" font-size="13.333" font-family="Aptos, Carlito, sans-serif" fill="#000000">Base</tspan></text></g><g transform="translate(352.857, 423.527)"><rect fill="#ed7d31" stroke="none" width="7.32" height="7.32"/></g><g transform="translate(363.337, 418.543)"><rect fill="none" stroke="none" width="44.876" height="24.414"/><text x="0" y="12.243" xml:space="preserve"><tspan x="0" dy="0" text-anchor="start" font-size="13.333" font-family="Aptos, Carlito, sans-serif" fill="#000000">Uplift</tspan></text></g></g></svg>